<?xml version="1.0" encoding="UTF-8"?>
<!DOCTYPE svg PUBLIC "-//W3C//DTD SVG 1.1//EN" "http://www.w3.org/Graphics/SVG/1.1/DTD/svg11.dtd">
<!-- Creator: CorelDRAW 2017 -->
<svg xmlns="http://www.w3.org/2000/svg" xml:space="preserve" width="179.948mm" height="32.666mm" version="1.1" style="shape-rendering:geometricPrecision; text-rendering:geometricPrecision; image-rendering:optimizeQuality; fill-rule:evenodd; clip-rule:evenodd"
viewBox="0 0 17130.74 3109.74"
 xmlns:xlink="http://www.w3.org/1999/xlink">
 <defs>
  <style type="text/css">
   <![CDATA[
    .str1 {stroke:#1D4570;stroke-width:6.72;stroke-miterlimit:22.9256}
    .str0 {stroke:#1E3A5E;stroke-width:35.2;stroke-miterlimit:22.9256}
    .fil3 {fill:none}
    .fil1 {fill:#FEFEFE}
    .fil2 {fill:#1E3A5E}
    .fil4 {fill:#1D4570;fill-rule:nonzero}
    .fil0 {fill:#1E3A5E;fill-rule:nonzero}
   ]]>
  </style>
 </defs>
 <g id="Capa_x0020_1">
  <metadata id="CorelCorpID_0Corel-Layer"/>
  <g id="_2368959013584">
   <path class="fil0" d="M9196.52 2039.33l0 -977.68 518.72 0 359.29 648.84 348.11 -648.84 504.83 0 0 977.68 -325.04 0 16.12 -715.31 -396.29 715.31 -305 0 -408.52 -715.31 8.74 715.31 -320.94 0zm-1064.95 -485.18l412.33 0c65.28,0 111.76,-4.97 139.58,-14.41 35.19,-11.94 53,-43.24 53,-94.06 0,-30.04 -1.64,-53.74 -4.93,-71.09 -6.28,-33.95 -27.62,-55.52 -64.18,-64.73 -20.14,-5.09 -57.46,-7.82 -111.43,-7.82l-424.36 0 0 252.11zm-331.05 485.18l0 -977.68 835.44 0c140.39,0 239.07,11.74 295.54,35.18 51.58,21.41 88.49,57.4 110.33,107.49 19.4,44.95 28.96,104.8 28.96,179.56 0,115.54 -30.87,193.23 -92.87,232.32 -31.42,19.54 -80.04,33.96 -145.59,42.99 -19.39,2.94 -41.53,6.11 -66.64,9.29 27.85,1.95 46.14,2.92 54.62,2.92 79.48,3.91 131.67,12.96 156.24,27.12 28.4,15.39 48.9,37.14 61.18,65.72 12.29,28.83 18.3,68.89 18.3,120.93l0 154.15 -337.59 0 0 -121.42c0,-52.77 -13.95,-87.95 -41.53,-105.54 -17.75,-10.51 -42.92,-16.08 -75.37,-17.84 -10.61,-0.57 -32.9,-1.47 -66.38,-1.47l-403.6 0 0 246.26 -331.05 0zm-887.4 0l0 -735.83 -447.5 0 0 -241.84 1227.71 0 0 241.84 -447.52 0 0 735.83 -332.7 0zm-1917.14 0l0 -977.68 529.07 0 545.14 714.44 -8.73 -714.44 314.66 0 0 977.68 -533.99 0 -535.59 -696.75 9.56 696.75 -320.11 0zm-1464.27 -977.68l332.69 0 0 424.09c0,46.41 0,79.4 0,99.19 0,54.73 2.18,93.87 7.1,117.27 9.27,44.04 36.07,74.59 79.21,91.36 30.82,11.99 77.62,16.83 140.4,19.31l55.57 2.19c116.28,4.59 177.05,-2.75 201.61,-3.66 65.79,-2.46 111.19,-12.41 136.58,-28.83 30.83,-19.93 48.84,-56.23 53.25,-109.93 1.81,-21.99 3.27,-46.9 3.27,-74.03l0 -88.68 0 -448.28 332.69 0 0 512.03c0,113.55 -4.22,197.75 -18.31,251.39 -25.49,97.05 -98.51,162.36 -216.05,195.93 -47.39,13.54 -101.92,20.81 -163.06,22.72 -54.34,1.69 -152.98,4.39 -314.95,4.39 -161.7,0 -227.78,-2.94 -296.49,-8.79 -177.6,-15.11 -283.28,-87.01 -314.38,-212.79 -13.97,-56.46 -19.13,-136.56 -19.13,-239.17l0 -525.72z"/>
   <path class="fil1 str0" d="M1554.87 17.6c849.02,0 1537.27,688.25 1537.27,1537.27 0,849.02 -688.25,1537.27 -1537.27,1537.27 -849.02,0 -1537.27,-688.25 -1537.27,-1537.27 0,-849.02 688.25,-1537.27 1537.27,-1537.27z"/>
   <path class="fil0" d="M1233.57 2924.98l-36.71 -10.68 22.7 -77.96c2.78,-9.58 2.76,-17.4 -0.1,-23.49 -2.86,-6.09 -8.48,-10.36 -16.9,-12.81 -8.43,-2.45 -15.64,-1.82 -21.71,1.87 -6.04,3.7 -10.41,10.15 -13.09,19.35l-22.69 77.96 -35.07 -10.21 23.64 -81.23c4.88,-16.77 14.07,-28.04 27.56,-33.73 13.52,-5.7 30.59,-5.53 51.3,0.5 19.8,5.76 33.43,14.59 40.84,26.5 7.41,11.92 8.53,26.69 3.38,44.38l-23.15 79.54zm-100.37 -173.07l-48.67 127.29 -50.18 -19.18 -5.73 -105.94 -34.61 90.51 -30.23 -11.56 48.67 -127.29 48.62 18.58 5.64 109.28 35.73 -93.46 30.77 11.76zm-134.86 -56.97l-63.28 120.68 -33.36 -17.49 63.28 -120.68 33.36 17.49zm-80.17 -43.54l-26.54 141.72 -34.2 -19.5 21.13 -102.16 -77.56 69.99 -32.69 -18.64 110.08 -94.1 39.78 22.69zm-88.33 -51.64l-86.84 105.02 -77.47 -64.06 16.64 -20.13 49.18 40.67 17.73 -21.45 -46.85 -38.74 16.53 -19.98 46.85 38.74 18.57 -22.47 -50.62 -41.85 17.36 -21 78.92 65.25zm-171.71 -41.07l-10.82 -10.22c-6.24,-5.89 -11.48,-9.11 -15.69,-9.62 -4.24,-0.52 -8.51,1.52 -12.84,6.1 -3.94,4.17 -5.51,8.33 -4.73,12.5 0.77,4.15 4.07,9.01 9.9,14.51l11.44 10.81 22.74 -24.08zm80.39 -30.8l-93.59 99.05 -44.73 -42.27c-12.26,-11.6 -19.47,-22.43 -21.61,-32.57 -2.18,-10.14 0.72,-19.41 8.67,-27.83 6.5,-6.88 13.76,-10.52 21.78,-10.88 7.98,-0.36 16.18,2.48 24.59,8.56l0.5 -0.52c-5.5,-5.2 -8.75,-10.4 -9.7,-15.59 -0.97,-5.22 0.27,-11.07 3.76,-17.62 0.97,-1.94 4.57,-7.27 10.73,-15.99 6.16,-8.72 11.15,-16.8 14.99,-24.28l29.58 27.94c-3.67,5.6 -8.07,11.85 -13.23,18.74 -5.14,6.85 -8.25,11.17 -9.34,12.87 -2.8,4.39 -3.91,8.32 -3.35,11.8 0.55,3.51 2.93,7.24 7.15,11.22l10.57 9.99 36.14 -38.24 27.1 25.61zm-146.81 -81.78l0.69 -0.61c4.64,-4.08 7.09,-8.65 7.34,-13.7 0.3,-5.06 -1.61,-9.9 -5.67,-14.51 -4.84,-5.49 -9.46,-8.82 -13.79,-9.97 -4.32,-1.14 -8.33,-0.1 -11.98,3.11 -5.23,4.61 -4.06,14.18 3.49,28.71 1.73,3.4 3.08,5.99 4.01,7.79 8.29,16.66 12.25,29.36 11.88,38.05 -0.39,8.71 -4.65,16.67 -12.83,23.89 -8.97,7.91 -19.7,10.42 -32.24,7.61 -12.51,-2.85 -24.47,-10.73 -35.81,-23.6 -12.05,-13.68 -18.66,-26.23 -19.77,-37.65 -1.11,-11.42 3.27,-21.48 13.16,-30.2l1.73 -1.52 25.06 28.43 -0.48 0.41c-4.21,3.71 -6.44,7.63 -6.68,11.74 -0.26,4.14 1.47,8.3 5.18,12.51 3.63,4.11 7.5,6.55 11.65,7.35 4.13,0.77 7.77,-0.2 10.91,-2.98 5.11,-4.5 2.9,-15.79 -6.71,-33.85 -2.59,-4.79 -4.56,-8.56 -5.9,-11.33 -5.83,-11.52 -8.33,-21.55 -7.52,-30.08 0.83,-8.51 5.04,-16.14 12.61,-22.81 10.43,-9.2 22,-12.24 34.65,-9.1 12.65,3.14 25.71,12.32 39.15,27.56 12.22,13.87 18.57,27.03 19.06,39.51 0.49,12.48 -4.91,23.68 -16.17,33.6l-24.99 -28.34zm-28.83 -101.44l-108.19 82.85 -22.9 -29.91 108.19 -82.85 22.9 29.91zm-148.19 -14.82l70.95 -46.09 -7.3 -11.24c-8.46,-13.04 -17.35,-20.63 -26.65,-22.79 -9.3,-2.16 -20.19,0.82 -32.65,8.91 -12.49,8.1 -19.69,16.88 -21.53,26.32 -1.85,9.43 1.45,20.65 9.88,33.63l7.3 11.25zm-0.96 45.75l-29.9 -46.03c-14.47,-22.28 -20.52,-42.03 -18.23,-59.28 2.3,-17.26 13,-32.11 32.1,-44.51 19.13,-12.43 37.02,-16.15 53.72,-11.23 16.67,4.93 32.22,18.53 46.69,40.8l29.89 46.03 -114.28 74.22zm-46.26 -240.71l-41.92 42.01 58.99 -10.07 -17.08 -31.94zm89.7 55.78l-145.01 17.79 -21.64 -40.48 94.82 -111.68 19.92 37.25 -19.11 20.88 25.27 47.26 27.99 -4.26 17.76 33.23zm-192.22 -143.38l80.54 -25.89 -4.1 -12.77c-4.76,-14.8 -11.34,-24.46 -19.75,-28.97 -8.42,-4.52 -19.71,-4.5 -33.85,0.05 -14.18,4.55 -23.42,11.14 -27.66,19.76 -4.26,8.62 -4.01,20.32 0.73,35.05l4.1 12.77zm-12.92 43.91l-16.8 -52.25c-8.13,-25.28 -8.81,-45.93 -2.08,-61.98 6.74,-16.05 20.95,-27.59 42.64,-34.56 21.71,-6.98 39.95,-5.88 54.78,3.23 14.79,9.12 26.26,26.31 34.39,51.6l16.8 52.25 -129.73 41.72zm66.72 -242.38l-134.4 22.46 -8.85 -52.99 88.46 -58.57 -95.58 15.97 -5.33 -31.92 134.4 -22.46 8.59 51.34 -91.39 60.17 98.68 -16.49 5.43 32.48zm-82.76 -221.23l-55.31 21.53 58.04 14.57 -2.73 -36.11zm59.57 87.23l-139.87 -42.23 -3.47 -45.76 131.81 -63.93 3.2 42.12 -25.9 11.39 4.06 53.43 27.32 7.4 2.85 37.58zm-50.22 -279.03l1.29 0.02c13.98,0.2 24.84,5.87 32.6,17.07 7.76,11.15 11.47,26.57 11.19,46.22 -0.3,21.26 -6.44,37.6 -18.4,49.07 -11.97,11.46 -28.71,17.06 -50.19,16.75 -23.71,-0.34 -41.68,-6.5 -53.93,-18.51 -12.22,-12.01 -18.19,-29.29 -17.86,-51.84 0.28,-18.73 4.29,-33.1 12.08,-43.12 7.78,-10.04 18.96,-15.24 33.57,-15.66l-0.56 38.64c-5.67,0.3 -10.16,2.44 -13.5,6.49 -3.3,4.05 -5.03,9.45 -5.12,16.14 -0.13,9.19 3.58,16.2 11.15,21.05 7.6,4.87 18.85,7.41 33.83,7.63 13.84,0.2 24.31,-2.05 31.42,-6.71 7.1,-4.66 10.7,-11.67 10.84,-21.04 0.1,-6.78 -1.53,-12.23 -4.9,-16.35 -3.35,-4.12 -8.05,-6.4 -14.07,-6.86l0.57 -38.98zm48.11 -11.49l-134.99 -18.62 5.14 -37.31 134.99 18.61 -5.14 37.32zm-60.66 -61.36c-21.87,-3.66 -37.88,-12.54 -48,-26.64 -10.15,-14.07 -13.39,-31.98 -9.77,-53.69 3.61,-21.63 12.5,-37.48 26.67,-47.48 14.16,-10.04 32.18,-13.23 54.05,-9.58 21.81,3.64 37.82,12.52 48.07,26.64 10.21,14.09 13.52,31.98 9.91,53.6 -3.62,21.66 -12.57,37.5 -26.82,47.55 -14.28,10.06 -32.3,13.25 -54.12,9.61zm6.27 -38.48c13.87,2.31 24.72,1.5 32.58,-2.4 7.84,-3.89 12.59,-10.87 14.27,-20.9 1.67,-9.99 -0.57,-18.07 -6.73,-24.25 -6.16,-6.18 -16.16,-10.44 -30.04,-12.76 -13.91,-2.32 -24.78,-1.55 -32.61,2.29 -7.84,3.84 -12.58,10.75 -14.24,20.73 -1.68,10.02 0.57,18.16 6.76,24.42 6.15,6.24 16.18,10.54 30.03,12.85zm87.06 -100.59l-128.06 -46.59 18.36 -50.48 105.83 -7.45 -91.07 -33.13 11.07 -30.41 128.06 46.58 -17.8 48.91 -109.16 7.42 94.03 34.2 -11.26 30.95zm34.85 -233.7l-58.8 -8.03 43.67 40.93 15.14 -32.89zm9.73 105.17l-101.78 -104.82 19.19 -41.7 146.27 8.11 -17.66 38.37 -28.17 -2.62 -22.4 48.68 20.3 19.73 -15.76 34.24zm68.24 -143.2l-117.38 -69.21 19.13 -32.44 94.72 55.84 30.77 -52.17 22.66 13.37 -49.89 84.61zm108.8 -167.03l-85.08 -68.47 -25.87 32.14 -21.08 -16.96 75.46 -93.78 21.09 16.97 -25.87 32.14 85.07 68.48 -23.72 29.48zm-0.76 -107.8c-16.12,-15.23 -24.46,-31.53 -25,-48.87 -0.58,-17.35 6.71,-34.01 21.83,-50.02 15.06,-15.94 31.27,-24.14 48.63,-24.55 17.35,-0.45 34.09,6.96 50.21,22.19 16.08,15.18 24.42,31.48 25.05,48.91 0.63,17.38 -6.6,34.08 -21.66,50.02 -15.07,15.96 -31.34,24.11 -48.77,24.52 -17.46,0.39 -34.2,-7.02 -50.28,-22.2zm26.67 -28.45c10.22,9.66 19.69,15.04 28.37,16.18 8.69,1.13 16.53,-2.01 23.5,-9.4 6.95,-7.36 9.61,-15.31 7.93,-23.88 -1.67,-8.57 -7.6,-17.68 -17.82,-27.35 -10.25,-9.67 -19.71,-15.1 -28.36,-16.28 -8.64,-1.19 -16.43,1.91 -23.39,9.28 -6.97,7.38 -9.64,15.39 -8,24.03 1.63,8.62 7.56,17.77 17.76,27.41zm106.65 -115.84l11.17 -9.84c6.44,-5.67 10.12,-10.61 11,-14.76 0.91,-4.16 -0.73,-8.61 -4.9,-13.33 -3.8,-4.31 -7.79,-6.26 -12.01,-5.85 -4.21,0.38 -9.35,3.23 -15.36,8.53l-11.8 10.41 21.91 24.85zm23.34 82.87l-90.11 -102.22 46.16 -40.7c12.66,-11.16 24.11,-17.35 34.4,-18.55 10.29,-1.26 19.27,2.48 26.92,11.17 6.25,7.1 9.22,14.66 8.85,22.69 -0.37,7.98 -3.95,15.89 -10.77,23.7l0.48 0.54c5.68,-5.01 11.15,-7.77 16.41,-8.23 5.28,-0.5 11,1.27 17.21,5.35 1.85,1.14 6.82,5.21 14.95,12.14 8.12,6.92 15.72,12.63 22.81,17.15l-30.52 26.9c-5.24,-4.17 -11.07,-9.12 -17.46,-14.88 -6.37,-5.74 -10.38,-9.23 -11.97,-10.48 -4.11,-3.18 -7.94,-4.66 -11.46,-4.41 -3.54,0.23 -7.47,2.26 -11.82,6.1l-10.91 9.62 34.79 39.46 -27.97 24.67zm98.01 -80.62l-78.05 -111.7 30.87 -21.58 78.05 111.71 -30.87 21.57zm62.13 -72.13l12.22 -7.93c7.7,-5.01 12.53,-9.68 14.52,-14.09 1.98,-4.42 1.35,-9.09 -1.86,-14.03 -2.99,-4.61 -6.94,-6.85 -11.88,-6.77 -4.92,0.07 -11.13,2.56 -18.61,7.43l-12.22 7.94 17.83 27.46zm-30.61 -47.14l12.21 -7.93c6.83,-4.44 11.12,-8.73 12.91,-12.86 1.79,-4.13 1.25,-8.45 -1.65,-12.89 -2.76,-4.26 -6.46,-6.37 -11.16,-6.37 -4.68,0.04 -10.29,2.17 -16.8,6.4l-12.22 7.94 16.71 25.71zm13.48 87.83l-74.23 -114.29 42.86 -27.83c17.28,-11.22 31.59,-17.1 42.95,-17.67 11.36,-0.53 20.32,4.23 26.86,14.31 4.37,6.72 5.9,13.55 4.63,20.43 -1.31,6.9 -5.42,13.97 -12.38,21.2 10.52,-4.43 19.57,-5.83 27.09,-4.21 7.5,1.59 13.77,6.25 18.76,13.96 6.78,10.42 8.15,20.66 4.08,30.67 -4.04,10 -13.57,19.87 -28.54,29.6l-52.09 33.82zm109.04 -65.67l-64.25 -120.17 33.22 -17.76 64.25 120.18 -33.22 17.75zm17.71 -89.53c-8.37,-20.53 -9.22,-38.82 -2.52,-54.83 6.64,-16.03 20.18,-28.2 40.57,-36.51 20.31,-8.27 38.46,-9.03 54.42,-2.22 15.97,6.77 28.16,20.44 36.53,40.97 8.35,20.48 9.2,38.76 2.56,54.89 -6.63,16.09 -20.12,28.3 -40.42,36.58 -20.32,8.28 -38.51,8.99 -54.55,2.14 -16.05,-6.88 -28.24,-20.54 -36.58,-41.02zm36.05 -14.87c5.31,13.03 11.69,21.84 19.13,26.47 7.44,4.64 15.87,5.02 25.28,1.18 9.38,-3.82 15.09,-9.97 17.11,-18.46 2.03,-8.48 0.4,-19.24 -4.91,-32.26 -5.32,-13.05 -11.69,-21.91 -19.08,-26.56 -7.38,-4.66 -15.75,-5.06 -25.12,-1.24 -9.41,3.84 -15.17,10.03 -17.23,18.57 -2.08,8.51 -0.48,19.31 4.83,32.3zm209.23 -82.24l14.51 -3.34c8.37,-1.93 13.95,-4.51 16.71,-7.75 2.78,-3.23 3.45,-7.91 2.03,-14.06 -1.29,-5.59 -3.87,-9.21 -7.79,-10.86 -3.88,-1.67 -9.76,-1.6 -17.56,0.21l-15.34 3.53 7.44 32.27zm-18.88 84l-30.64 -132.78 59.97 -13.84c16.44,-3.8 29.46,-3.79 39.09,0.05 9.64,3.79 15.76,11.35 18.36,22.63 2.13,9.22 1.14,17.28 -3,24.16 -4.12,6.84 -11.03,12.1 -20.75,15.73l0.17 0.71c7.38,-1.7 13.5,-1.53 18.35,0.55 4.88,2.08 9.07,6.36 12.59,12.89 1.09,1.88 3.52,7.83 7.38,17.78 3.86,9.97 7.82,18.59 11.91,25.94l-39.65 9.15c-2.62,-6.16 -5.4,-13.29 -8.27,-21.4 -2.87,-8.07 -4.73,-13.05 -5.54,-14.91 -2.1,-4.75 -4.77,-7.86 -7.98,-9.32 -3.24,-1.49 -7.65,-1.57 -13.31,-0.27l-14.17 3.27 11.83 51.26 -36.34 8.39zm110.24 -95.07c-3.04,-21.96 0.68,-39.9 11.11,-53.76 10.41,-13.88 26.54,-22.31 48.35,-25.32 21.71,-3 39.5,0.76 53.27,11.31 13.8,10.52 22.23,26.77 25.26,48.74 3.02,21.91 -0.69,39.83 -11.11,53.82 -10.4,13.95 -26.48,22.44 -48.21,25.44 -21.74,3 -39.54,-0.82 -53.39,-11.42 -13.85,-10.63 -22.27,-26.89 -25.28,-48.8zm38.59 -5.48c1.92,13.94 5.93,24.06 11.99,30.38 6.06,6.33 14.14,8.79 24.2,7.4 10.03,-1.38 17.08,-5.92 21.14,-13.65 4.06,-7.72 5.15,-18.54 3.23,-32.47 -1.92,-13.97 -5.91,-24.12 -11.91,-30.45 -6,-6.34 -14.01,-8.81 -24.04,-7.42 -10.07,1.38 -17.17,5.96 -21.3,13.73 -4.12,7.73 -5.24,18.59 -3.32,32.49zm158.51 -57.27l1.21 84.6 13.4 -0.2c15.56,-0.22 26.7,-3.69 33.48,-10.41 6.78,-6.72 10.06,-17.53 9.85,-32.39 -0.21,-14.88 -3.81,-25.65 -10.8,-32.24 -7.01,-6.59 -18.25,-9.77 -33.74,-9.55l-13.4 0.19zm-38.21 -25.19l54.87 -0.79c26.56,-0.38 46.51,5.02 59.89,16.16 13.38,11.13 20.25,28.1 20.57,50.87 0.32,22.8 -6.05,39.93 -19.11,51.45 -13.05,11.47 -32.84,17.4 -59.4,17.78l-54.88 0.79 -1.94 -136.26zm193.02 61.24l14.85 1.12c8.56,0.65 14.66,-0.15 18.25,-2.41 3.62,-2.26 5.65,-6.54 6.12,-12.82 0.44,-5.72 -0.95,-9.95 -4.19,-12.69 -3.21,-2.74 -8.83,-4.44 -16.83,-5.04l-15.69 -1.19 -2.51 33.02zm-43.04 74.56l10.3 -135.89 61.36 4.66c16.83,1.28 29.25,5.16 37.3,11.68 8.08,6.5 11.67,15.54 10.8,27.07 -0.71,9.44 -4.06,16.84 -10.07,22.18 -5.97,5.3 -14.13,8.25 -24.48,8.83l-0.06 0.71c7.55,0.58 13.35,2.57 17.35,6.01 4.05,3.44 6.77,8.77 8.18,16.06 0.48,2.11 1.03,8.52 1.74,19.17 0.71,10.65 1.92,20.08 3.65,28.3l-40.57 -3.07c-0.67,-6.66 -1.2,-14.3 -1.52,-22.9 -0.33,-8.57 -0.63,-13.87 -0.86,-15.88 -0.58,-5.17 -2.2,-8.93 -4.84,-11.28 -2.64,-2.38 -6.84,-3.78 -12.62,-4.22l-14.5 -1.09 -3.98 52.46 -37.17 -2.82zm126.24 13.15l22.46 -134.41 37.15 6.21 -22.46 134.41 -37.15 -6.21zm76.51 -172l-35.26 28.65 -14.03 -2.34 23.13 -30.68 26.16 4.38zm105.2 204.63c-11.48,-0.28 -22.2,-0.96 -32.08,-2.04 -9.9,-1.09 -19.2,-2.61 -27.9,-4.59 -23.93,-5.43 -40.65,-15.17 -50.2,-29.24 -9.52,-14.06 -11.77,-32.26 -6.71,-54.54 5.14,-22.64 15.21,-38.53 30.2,-47.68 15,-9.12 34.2,-11.03 57.64,-5.72 19.93,4.52 33.96,11.3 42,20.33 8.06,9.04 10.72,20.91 7.92,35.63l-37.75 -8.57c0.9,-5.25 -0.27,-9.92 -3.47,-13.92 -3.21,-3.99 -8.03,-6.73 -14.45,-8.19 -10.82,-2.46 -20.08,-0.58 -27.77,5.64 -7.71,6.21 -13.11,16.14 -16.22,29.86 -3.27,14.39 -2.47,25.99 2.4,34.76 4.87,8.78 13.76,14.64 26.68,17.57 3.13,0.71 6.41,1.26 9.88,1.63 3.45,0.36 7.05,0.53 10.79,0.5l5.52 -24.33 -27.5 -6.24 5.74 -25.29 61.28 13.91 -16 70.5zm64.01 -116l35.71 13.66 -29 75.83c-3.56,9.31 -4.18,17.12 -1.83,23.42 2.35,6.3 7.61,11.01 15.8,14.15 8.2,3.13 15.43,3.09 21.78,-0.09 6.32,-3.19 11.2,-9.25 14.63,-18.21l28.99 -75.84 34.13 13.04 -30.22 79.02c-6.24,16.33 -16.32,26.79 -30.23,31.37 -13.95,4.57 -30.94,3 -51.09,-4.7 -19.27,-7.37 -32.12,-17.29 -38.54,-29.76 -6.41,-12.48 -6.31,-27.31 0.27,-44.51l29.59 -77.38zm86.94 180.15l61.44 -121.63 89.73 45.32 -11.78 23.31 -56.96 -28.77 -12.55 24.84 54.25 27.4 -11.69 23.14 -54.25 -27.4 -13.14 26.02 58.62 29.61 -12.29 24.32 -91.4 -46.16zm95.95 47.59l16.67 -25.96 102.12 -28.66 -55 -35.32 14.11 -21.98 92.1 59.16 -15.96 24.87 -104.38 28.75 61.44 39.46 -14.12 21.98 -96.98 -62.29zm257.77 45.24l-55.22 64.1 10.16 8.75c11.79,10.15 22.43,14.95 31.96,14.42 9.54,-0.53 19.16,-6.44 28.86,-17.69 9.72,-11.28 14.18,-21.72 13.3,-31.3 -0.87,-9.58 -7.17,-19.42 -18.9,-29.53l-10.16 -8.75zm-11.88 -44.2l41.58 35.82c20.12,17.34 31.47,34.6 34.1,51.82 2.62,17.2 -3.5,34.45 -18.36,51.71 -14.89,17.28 -31.03,25.86 -48.43,25.81 -17.39,-0.07 -36.13,-8.76 -56.25,-26.1l-41.58 -35.82 88.94 -103.23zm22.96 201.09l100.31 -92.23 68.05 74 -19.22 17.68 -43.2 -46.97 -20.48 18.83 41.14 44.74 -19.09 17.55 -41.14 -44.75 -21.46 19.73 44.46 48.34 -20.07 18.45 -69.3 -75.38zm120.6 131.41l114.29 -74.23 32.08 49.39 -61.2 67.06 85.1 -30.25 32.06 49.36 -114.29 74.23 -19.07 -29.37 91.43 -59.38 -107.78 34.2 -18.68 -28.76 75.07 -84.91 -91.58 59.49 -17.43 -26.83zm96.36 151.96l120.18 -64.24 47.39 88.66 -23.03 12.31 -30.09 -56.27 -24.53 13.12 28.65 53.6 -22.87 12.23 -28.65 -53.61 -25.7 13.74 30.96 57.92 -24.03 12.85 -48.27 -90.3zm54.13 102.54l126.99 -49.45 19.49 50.06 -74.64 75.4 90.3 -35.16 11.74 30.16 -126.98 49.45 -18.89 -48.51 77.18 -77.57 -93.25 36.3 -11.95 -30.68zm167.73 143.36l-81.23 23.65 3.75 12.87c4.35,14.93 10.65,24.75 18.93,29.5 8.29,4.76 19.57,5.06 33.84,0.9 14.29,-4.16 23.72,-10.49 28.22,-18.99 4.48,-8.5 4.57,-20.19 0.24,-35.06l-3.75 -12.87zm14.14 -43.53l15.35 52.69c7.42,25.5 7.52,46.17 0.34,62.03 -7.19,15.85 -21.71,26.99 -43.58,33.35 -21.9,6.37 -40.11,4.77 -54.67,-4.75 -14.54,-9.54 -25.51,-27.04 -32.94,-52.54l-15.34 -52.7 130.84 -38.08zm-26.46 167.52c21.96,-3.03 39.89,0.68 53.75,11.12 13.89,10.41 22.32,26.54 25.33,48.35 2.99,21.71 -0.77,39.5 -11.32,53.27 -10.52,13.8 -26.77,22.22 -48.74,25.25 -21.91,3.03 -39.83,-0.69 -53.82,-11.11 -13.95,-10.4 -22.44,-26.48 -25.44,-48.21 -3,-21.74 0.83,-39.54 11.42,-53.38 10.63,-13.86 26.89,-22.28 48.81,-25.29zm5.47 38.6c-13.93,1.92 -24.05,5.92 -30.38,11.99 -6.33,6.06 -8.79,14.14 -7.4,24.2 1.38,10.03 5.92,17.09 13.65,21.14 7.72,4.06 18.54,5.15 32.47,3.23 13.98,-1.92 24.12,-5.9 30.46,-11.9 6.33,-6 8.8,-14.02 7.42,-24.05 -1.39,-10.06 -5.97,-17.16 -13.74,-21.29 -7.73,-4.13 -18.58,-5.25 -32.49,-3.32zm-52.83 112.69l30.85 -0.44 80.29 69.3 -0.92 -65.35 26.11 -0.37 1.56 109.44 -29.55 0.43 -81.62 -71.14 1.04 73.02 -26.11 0.37 -1.65 -115.26zm50.35 210.27l57.93 -12.94 -55.19 -23.17 -2.74 36.11zm-45.73 -95.21l131.9 62.83 -3.47 45.77 -139.95 43.32 3.2 -42.12 27.32 -7.35 4.06 -53.44 -25.89 -11.42 2.85 -37.58zm76.55 282.04l-82.51 -18.72 -2.96 13.08c-3.45,15.16 -2.69,26.82 2.25,34.99 4.94,8.18 14.67,13.91 29.16,17.19 14.52,3.29 25.83,2.33 33.88,-2.92 8.05,-5.25 13.79,-15.44 17.22,-30.54l2.96 -13.08zm33.48 -31.22l-12.15 53.53c-5.87,25.89 -15.81,44.02 -29.78,54.41 -13.98,10.39 -32.07,13.07 -54.29,8.03 -22.24,-5.05 -37.38,-15.27 -45.5,-30.66 -8.08,-15.39 -9.2,-36.02 -3.32,-61.93l12.15 -53.52 132.9 30.15zm-169.66 113.77l129.04 43.8 -32.32 95.2 -24.72 -8.4 20.51 -60.43 -26.34 -8.94 -19.54 57.56 -24.55 -8.33 19.54 -57.57 -27.61 -9.37 -21.11 62.19 -25.81 -8.76 32.91 -96.96zm-55.12 262.17l58.31 11.06 -41.5 -43.13 -16.81 32.07zm-4.28 -105.54l96.23 109.93 -21.31 40.65 -145.66 -15.65 19.61 -37.4 28 4.06 24.88 -47.47 -19.25 -20.74 17.51 -33.39zm-75.72 139.71l112.04 77.57 -33.52 48.42 -85.27 -31.18 60.29 67.26 -33.51 48.39 -112.03 -77.57 19.92 -28.79 89.63 62.06 -72.53 -86.74 19.52 -28.2 107.04 37.24 -89.78 -62.16 18.2 -26.29zm-122.3 240.3l53.14 26.43 -28.27 -52.75 -24.87 26.32zm24.45 -102.76l62.87 131.88 -31.52 33.36 -135.99 -54.49 29.01 -30.7 25.86 11.5 36.8 -38.96 -12.92 -25.18 25.89 -27.4zm-104.47 107.76l20.7 22.88 0.98 106.06 48.47 -43.85 17.52 19.36 -81.17 73.44 -19.83 -21.91 -0.46 -108.27 -54.15 48.99 -17.53 -19.36 85.47 -77.33zm-51.3 135.62c12.87,18.05 17.92,35.65 15.1,52.78 -2.78,17.13 -13.15,32.08 -31.07,44.88 -17.85,12.73 -35.34,17.65 -52.44,14.7 -17.1,-2.9 -32.11,-13.4 -44.98,-31.45 -12.84,-18 -17.89,-35.6 -15.14,-52.83 2.73,-17.18 13.04,-32.17 30.89,-44.9 17.88,-12.75 35.4,-17.62 52.59,-14.65 17.21,2.99 32.22,13.48 45.06,31.48zm-31.65 22.77c-8.17,-11.45 -16.41,-18.55 -24.72,-21.34 -8.3,-2.79 -16.59,-1.22 -24.87,4.68 -8.24,5.87 -12.38,13.18 -12.39,21.9 -0.01,8.73 4.05,18.81 12.21,30.27 8.2,11.47 16.43,18.62 24.68,21.45 8.25,2.83 16.5,1.29 24.74,-4.59 8.27,-5.9 12.43,-13.25 12.48,-22.05 0.07,-8.76 -3.98,-18.9 -12.14,-30.32zm-132.63 9.1l64.24 120.18 -47.37 25.32 -83.77 -65.11 45.69 85.46 -28.54 15.26 -64.25 -120.18 45.9 -24.53 86.23 67.36 -47.17 -88.25 29.04 -15.52zm-185.75 147.88l36.42 46.87 -2.59 -59.79 -33.83 12.93zm66.59 -81.98l-0.54 146.09 -42.87 16.39 -98.9 -108.08 39.46 -15.09 18.31 21.57 50.06 -19.13 -0.71 -28.29 35.2 -13.46zm-167.39 106.75l-0.25 -0.88c-1.73,-5.93 -4.82,-10.1 -9.28,-12.47 -4.46,-2.42 -9.64,-2.75 -15.55,-1.04 -7.03,2.05 -12,4.81 -14.88,8.24 -2.88,3.44 -3.64,7.5 -2.28,12.16 1.95,6.7 11.11,9.72 27.47,9.06 3.81,-0.12 6.73,-0.25 8.75,-0.31 18.6,-0.42 31.79,1.4 39.5,5.43 7.71,4.06 13.11,11.29 16.16,21.77 3.34,11.48 1.07,22.27 -6.83,32.41 -7.9,10.12 -20.12,17.58 -36.59,22.37 -17.51,5.1 -31.67,5.74 -42.49,1.89 -10.81,-3.86 -18.04,-12.1 -21.72,-24.76l-0.65 -2.21 36.38 -10.59 0.18 0.6c1.57,5.4 4.15,9.08 7.78,11.04 3.64,2 8.13,2.2 13.53,0.63 5.26,-1.53 9.11,-4 11.6,-7.42 2.45,-3.41 3.11,-7.12 1.94,-11.14 -1.9,-6.55 -13.06,-9.34 -33.5,-8.32 -5.44,0.3 -9.68,0.49 -12.76,0.52 -12.91,0.37 -23.05,-1.64 -30.43,-6 -7.35,-4.36 -12.46,-11.41 -15.28,-21.11 -3.89,-13.37 -1.73,-25.12 6.49,-35.24 8.23,-10.11 22.1,-18.03 41.6,-23.7 17.74,-5.16 32.36,-5.31 43.86,-0.45 11.5,4.87 19.33,14.51 23.53,28.93l-36.29 10.56z"/>
   <path class="fil2" d="M1554.87 375.59c651.39,0 1179.46,528.06 1179.46,1179.46 0,1551.43 -2358.91,1551.43 -2358.91,0 0,-651.39 528.06,-1179.46 1179.46,-1179.46z"/>
   <path class="fil1" d="M1555.46 2437.89c-7.69,1.02 -15.38,1.84 -22.94,2.65 -3.25,33.94 -6.35,67.88 -9.31,101.61 0,0 -263.42,18.79 -291.15,-13.21 -27.74,-32.01 -16.47,-128.43 -16.47,-128.43 7.02,-29.26 13.63,-58.74 20.52,-88.2 -0.13,-29.47 -0.27,-58.94 -0.4,-88.4 0,0 -23.49,-45.52 -44.69,-80.27 -21.19,-34.76 3.38,-151.2 3.38,-152.42 0,-0.2 -0.89,-8.03 -9.32,-12.19 -21.13,-10.47 -68.65,-26.06 -88.28,-53.04 -28.69,-39.46 10,-274.35 10,-274.35 0,0 -20.72,-8.95 -82.34,-24.18 -61.62,-15.24 -66.5,-121.26 -66.5,-121.26 0,0 -1.88,-5.48 -4.99,-61.57 -6.6,-111.36 -14.24,-153.18 -3.98,-266.49 8.3,-91.7 37.37,-115.99 114.1,-122.04 29.79,-2.35 49.4,-4.78 85.67,-7.21 0,0 5.61,14.43 -9.85,-58.73 -15.45,-73.16 -10.4,-82.13 8.51,-253.42 6.05,-54.81 15.1,-92.81 25.8,-119.52 71.58,-178.78 696.36,-138.68 761.19,-1.91 12.15,25.62 22.56,63.5 28.96,121.43 18.9,171.29 24.16,180.26 8.5,253.42 -15.25,73.16 -9.85,58.73 -9.85,58.73 23.44,1.56 46.82,3.58 70.21,5.53 84.12,7.03 108.61,11.62 118.95,123.72 11.4,123.65 24.8,153.4 14.39,277.6 -7.56,90.22 -48.08,160.29 -74.64,170.91 -90.2,36.11 -86.79,25 -86.79,25 0,0 38.64,234.95 9.99,274.35 -19.67,27.05 -67.3,42.53 -88.41,53.04 -8.31,4.12 -9.19,11.99 -9.19,12.19 0,1.22 24.44,117.66 3.25,152.42 -21.19,34.75 -44.68,80.27 -44.68,80.27 -0.13,29.46 -0.28,58.93 -0.41,88.4 6.75,29.46 13.63,58.94 20.52,88.2 0,0 11.33,96.43 -16.34,128.43 -27.67,32.01 -291.15,13.21 -291.15,13.21 -3.24,-33.74 -6.34,-67.68 -9.31,-101.61 -7.69,-0.81 -15.39,-1.63 -22.95,-2.65z"/>
   <g>
    <polygon class="fil1" points="682.11,1439.2 606.69,1468.15 634.34,1815.51 883.22,2008.5 895.79,2013.32 910.87,2015.74 925.96,2013.32 943.55,2006.08 963.66,1994.02 976.24,1977.13 988.8,1965.07 996.34,1953.01 1001.37,1938.55 996.34,1924.06 988.8,1909.59 973.72,1897.53 865.62,1788.98 853.05,1776.91 835.45,1779.32 817.86,1786.57 802.78,1793.8 787.69,1796.22 775.12,1793.8 760.04,1781.74 755.01,1762.44 752.5,1743.14 732.39,1569.46 732.39,1557.4 725.42,1549.45 717.81,1549.91 713.54,1552.2 706.89,1554.94 702.15,1560.39 700.25,1567.68 717.3,1793.8 883.22,1921.65 893.43,1929.33 900.26,1931.35 906.03,1930.34 912.32,1927.83 914.95,1924.8 916.01,1919.77 916.01,1915.23 913.38,1911.22 906.55,1906.17 898.17,1900.13 801.59,1826.6 805.26,1820.05 809.46,1818.04 816.29,1816.02 821.01,1814.51 827.83,1812.5 834.65,1813 843.06,1813 848.3,1817.03 855.65,1821.05 860.9,1828.11 944.35,1901.63 953.79,1911.22 956.42,1916.74 959.05,1921.78 963.24,1928.83 963.77,1937.4 961.14,1945.45 957.46,1953.5 951.7,1960.05 944.35,1965.59 936.47,1971.14 929.12,1975.68 920.73,1979.69 913.38,1980.21 906.55,1981.22 898.69,1978.19 890.82,1973.66 887.13,1969.62 674.05,1807.46 649.38,1497.22 780.07,1445.36 790.57,1439.81 796.87,1434.26 798.96,1428.73 798.96,1421.69 795.29,1414.63 790.05,1407.08 785.32,1398 748.06,1316.42 740.18,1312.9 731.78,1314.4 726.01,1316.92 721.81,1320.45 720.24,1326.49 719.18,1334.05 721.81,1342.61 724.43,1348.15 749.63,1405.56 753.3,1411.62 753.3,1418.66 750.15,1425.2 743.86,1428.23 737.03,1431.26 730.22,1431.76 723.38,1430.25 719.18,1425.71 716.04,1417.64 713.94,1412.61 683.49,1348.15 678.77,1339.59 673,1339.59 665.65,1338.58 658.83,1340.59 654.64,1344.63 650.96,1349.66 649.91,1356.21 653.06,1366.28 657.78,1376.35 "/>
    <polygon class="fil1" points="2427.63,1439.2 2503.05,1468.15 2475.4,1815.51 2226.52,2008.5 2213.96,2013.32 2198.87,2015.74 2183.78,2013.32 2166.2,2006.08 2146.07,1994.02 2133.5,1977.13 2120.94,1965.07 2113.4,1953.01 2108.37,1938.55 2113.4,1924.06 2120.94,1909.59 2136.03,1897.53 2244.12,1788.98 2256.69,1776.91 2274.29,1779.32 2291.89,1786.57 2306.97,1793.8 2322.05,1796.22 2334.62,1793.8 2349.7,1781.74 2354.74,1762.44 2357.24,1743.14 2377.35,1569.46 2377.35,1557.4 2384.32,1549.45 2391.93,1549.91 2396.2,1552.2 2402.85,1554.94 2407.59,1560.39 2409.49,1567.68 2392.44,1793.8 2226.52,1921.65 2216.31,1929.33 2209.48,1931.35 2203.71,1930.34 2197.41,1927.83 2194.79,1924.8 2193.74,1919.77 2193.74,1915.23 2196.36,1911.22 2203.19,1906.17 2211.58,1900.13 2308.16,1826.6 2304.48,1820.05 2300.28,1818.04 2293.46,1816.02 2288.73,1814.51 2281.91,1812.5 2275.09,1813 2266.69,1813 2261.44,1817.03 2254.09,1821.05 2248.85,1828.11 2165.4,1901.63 2155.95,1911.22 2153.32,1916.74 2150.7,1921.78 2146.5,1928.83 2145.98,1937.4 2148.6,1945.45 2152.28,1953.5 2158.05,1960.05 2165.4,1965.59 2173.27,1971.14 2180.62,1975.68 2189.01,1979.69 2196.36,1980.21 2203.19,1981.22 2211.05,1978.19 2218.93,1973.66 2222.61,1969.62 2435.69,1807.46 2460.36,1497.22 2329.67,1445.36 2319.17,1439.81 2312.88,1434.26 2310.78,1428.73 2310.78,1421.69 2314.45,1414.63 2319.69,1407.08 2324.42,1398 2361.69,1316.42 2369.56,1312.9 2377.96,1314.4 2383.73,1316.92 2387.93,1320.45 2389.5,1326.49 2390.56,1334.05 2387.93,1342.61 2385.31,1348.15 2360.11,1405.56 2356.44,1411.62 2356.44,1418.66 2359.58,1425.2 2365.88,1428.23 2372.71,1431.26 2379.53,1431.76 2386.35,1430.25 2390.56,1425.71 2393.7,1417.64 2395.8,1412.61 2426.24,1348.15 2430.97,1339.59 2436.74,1339.59 2444.09,1338.58 2450.91,1340.59 2455.1,1344.63 2458.79,1349.66 2459.83,1356.21 2456.68,1366.28 2451.96,1376.35 "/>
   </g>
   <path class="fil3" d="M1810.72 1595.94c31.72,64.02 20.24,76.62 36.17,125.6m-546.93 -125.6c-31.73,64.02 -20.11,76.62 -36.04,125.6"/>
   <g>
    <path class="fil0" d="M1355.59 2888.16l191.31 -105.35 7.97 -4.38 7.98 4.38 191.31 105.35 7.91 4.36 -7.91 4.36 -191.31 105.34 -7.98 4.39 -7.97 -4.39 -191.31 -105.34 -7.92 -4.36 7.92 -4.36zm199.28 -92.24l-175.42 96.6 175.42 96.59 175.42 -96.59 -175.42 -96.6z"/>
    <path class="fil0" d="M1423.35 2888.16l123.56 -68.04 7.97 -4.38 7.98 4.38 123.56 68.04 7.91 4.36 -7.91 4.36 -123.56 68.03 -7.98 4.39 -7.97 -4.39 -123.56 -68.03 -7.91 -4.36 7.91 -4.36zm131.53 -54.93l-107.66 59.29 107.66 59.28 107.67 -59.28 -107.67 -59.29z"/>
    <path class="fil0" d="M1485.13 2888.16l61.77 -34.01 7.98 -4.39 7.97 4.39 61.77 34.01 7.91 4.36 -7.91 4.36 -61.77 34.01 -7.97 4.39 -7.98 -4.39 -61.77 -34.01 -7.91 -4.36 7.91 -4.36zm69.75 -20.91l-45.89 25.27 45.89 25.27 45.88 -25.27 -45.88 -25.27z"/>
   </g>
   <line class="fil3" x1="1471.28" y1="2016.39" x2="1471.04" y2= "2079.17" />
   <polyline class="fil3" points="1530.81,2017.48 1530.33,2078.08 1529.99,2081.34 "/>
   <line class="fil3" x1="1654.62" y1="2016.38" x2="1654.33" y2= "2079.18" />
   <polyline class="fil3" points="1590.54,2017.48 1589.78,2078.08 1590.05,2081.34 "/>
   <path class="fil3" d="M1416.3 2013.76c98.23,-8.2 193.02,-8.05 284.56,0"/>
   <path class="fil3" d="M1422.52 2089.16c11.45,-2.44 22.72,-4.87 34.17,-7.51 68.99,0.4 137.99,0.81 206.98,1.22 11.61,2.64 23.56,5.28 35.35,7.92"/>
   <path class="fil1" d="M1372.62 1485.89l375.19 0c5.16,0 9.33,5.24 9.33,10.14l0 49.5c0,4.89 -4.17,7.69 -9.33,7.69l-375.19 0c-5.16,0 -9.29,-2.79 -9.29,-7.69l0 -49.5c0,-4.9 4.13,-10.14 9.29,-10.14z"/>
   <path class="fil1" d="M1555.6 916.31c47.06,0 172.28,-0.95 202.91,-40.09 32.46,-41.49 52.29,-112.8 52.29,-165.17 0,-35.38 -8.35,-131.35 -43.9,-149l-1.31 -0.66 -0.67 -1.14c-9.55,-12.13 -143.24,-48.1 -95.17,68.52 19.02,46.13 33.82,149.36 -29.33,168.82 -34.51,10.63 -48.61,11.32 -84.83,11.32 -36.21,0 -50.31,-0.69 -84.82,-11.32 -63.16,-19.47 -48.37,-122.69 -29.33,-168.82 48.09,-116.63 -85.57,-80.71 -95.14,-68.59l-0.7 1.21 -1.3 0.66c-35.56,17.65 -43.9,113.63 -43.9,149 0,52.37 19.81,123.68 52.27,165.17 30.64,39.14 155.87,40.09 202.92,40.09z"/>
   <path class="fil3" d="M1107.23 1658.52c24.29,0.9 43.4,-48.17 109.93,-45.8 32.74,1.16 21.48,-59.73 26.33,-81.53"/>
   <path class="fil3" d="M1859.57 1547.18c-0.81,50.19 -32.27,88.75 -51.69,40.24 -18.65,-46.59 -82.07,-62.8 -118.51,-34.96"/>
   <path class="fil3" d="M2009.82 1660.96c-24.29,0.91 -47.19,-50.61 -113.71,-48.24 -32.75,1.16 -21.48,-59.73 -26.33,-81.53"/>
   <g>
    <path class="fil2" d="M1095.15 1151.66l67.74 118.89 -67.74 -118.89zm341.96 925.15c5.78,-1.07 11.64,1.76 13.14,6.41l-13.14 -6.41zm19.61 -4.06l0.65 0 -0.65 0zm109.9 -357.5c0.22,3.82 -2,7.25 -5.3,8.67l5.3 -8.67zm-269.76 133.23c-1.31,4.5 -5.85,7.22 -10.37,6.11l10.37 -6.11zm-131.99 -572.15l0.04 0.14c0.16,2.08 -0.21,4.36 -0.98,6.35l-0.1 0.24c-0.83,1.99 -2.19,3.97 -4.02,5.48l-0.06 0.09c-1.83,1.49 -4.15,2.55 -6.83,2.79l-0.9 0.08 -0.06 0 -140.26 0 0 0c-2.77,0.09 -5.25,-0.63 -7.28,-1.85l-0.08 -0.04c-2.6,-1.59 -4.39,-3.95 -5.35,-6.55 -0.75,-2.05 -0.98,-4.35 -0.72,-6.45l-0.02 0c0.29,-2.42 1.24,-4.82 2.69,-6.73l67.1 -117.77c1.33,-2.68 3.4,-4.74 5.78,-6.07l0 0.02c2.21,-1.26 4.74,-1.88 7.2,-1.97l0.1 0c2.38,-0.08 4.86,0.38 7.03,1.34 2.81,1.24 5.33,3.3 7,6.24l69.71 124.67zm511.27 551.77c4.8,0 8.71,3.98 8.71,8.87 0,4.9 -3.91,8.87 -8.71,8.87l-97.99 0 2.76 37.14 0 0.04c0.13,1.83 59.99,2.69 99.45,3.25 17.09,0.24 30.77,0.46 35.96,1.18l0.02 0c20.57,2.89 42.21,4.13 63.91,5.25l1.3 -0.42c34.44,-8.14 37.17,-25.68 32.81,-44.22l0 0 0 -0.04c-1.57,-6.63 -4.08,-13.86 -6.5,-20.83l0.02 0 -0.02 -0.04c-3.87,-11.23 -7.62,-22.09 -8.11,-32.06 -0.24,-4.86 3.45,-9.03 8.23,-9.28 4.78,-0.26 8.87,3.51 9.09,8.38 0.39,7.47 3.71,17.1 7.16,27.1l0.02 0c2.51,7.26 5.11,14.81 6.96,22.6l0.02 0c4.65,19.68 4.24,38.54 -13.59,52 2.28,1.41 3.87,3.82 4.16,6.61 9.65,1.66 19.04,3.36 24.43,3.15 41.17,-1.49 149.87,53.52 109.47,69.71 -3.21,1.29 -39.4,18.69 -40.21,19.3 0.26,0.84 0.53,1.43 0.94,2.05 -22.09,-19.7 -51.25,-39.46 -85.95,-48.81l-3.89 162.86 -1.73 -0.06c24.41,14.59 54.5,31.53 79.79,42.49 19.13,8.28 -22.5,45.29 -27.43,68.59 -10.37,48.85 -17.7,-9.76 -61.34,-27.73l-2.71 -1.1c0.1,0.55 0.16,1.14 0.16,1.75 -0.04,11.74 0.18,22.45 0.39,32.04 1.44,66.41 1.85,85.56 -82.77,92.2 -20.14,1.57 -37.34,3.52 -52.24,5.21 -57.2,6.47 -83.66,9.48 -97.27,-25.73 -4.48,-11.64 -7,-31.98 -8.32,-58.04 -1.2,-23.19 -1.55,-50.58 -1.61,-80.41 -12.69,0.17 -25.69,0.39 -38.74,0.67 0.16,20.34 0.85,39.28 1.42,56.22 1.57,44.67 2.66,76.34 -7.14,91.64 -15.58,24.33 -41.92,21.36 -92.29,15.66 -14.85,-1.69 -32.04,-3.64 -52.13,-5.21 -84.75,-6.64 -84.35,-25.79 -82.91,-92.28 0.21,-9.39 0.41,-19.91 0.39,-31.38 -20.92,11.57 -46.17,29.74 -63.87,49.16 -1.75,1.9 -1.73,1.61 -3.72,3.12l-1.1 -2.51c-9.06,-22.56 -63.98,-82.31 -15.4,-96.43 13.93,-4.04 44.32,-25.95 73.4,-39.4l-3.87 -161.99c-35.19,7.97 -69.82,23.37 -95.15,49.47 0.28,-0.62 0.41,-1.21 0.81,-2.05 -0.53,-0.61 -36.89,-17.96 -40.21,-19.3 -40.29,-16.14 68.3,-71.21 109.47,-69.71 7.18,0.28 19.3,-2.38 29.76,-3.88 0.44,-2.36 1.82,-4.4 3.74,-5.7 -17.88,-13.32 -18.43,-32.04 -13.91,-51.6l0.1 -0.55c1.83,-7.71 4.45,-15.28 6.98,-22.62 3.45,-10.01 6.79,-19.65 7.18,-27.1 0.22,-4.86 4.31,-8.63 9.09,-8.38 4.78,0.25 8.47,4.42 8.23,9.28 -0.5,10.01 -4.26,20.87 -8.13,32.1 -2.4,6.97 -4.89,14.13 -6.47,20.89l-0.11 0.4c-4.21,18.37 -1.26,35.72 32.91,43.8l1.31 0.42c21.69,-1.14 43.32,-2.34 63.88,-5.25l0.02 0c5.19,-0.72 18.88,-0.94 35.96,-1.18 39.46,-0.55 99.34,-1.42 99.47,-3.25l0 -0.04 2.76 -37.14 -98.38 0c-4.8,0 -8.69,-3.97 -8.69,-8.87 0,-4.89 3.89,-8.87 8.69,-8.87l99.69 0 1.64 -22.11 1.41 -17.85c-17.58,0.03 -46.97,0.24 -69.1,0.69 -16.55,0.37 -30.04,0.89 -33.45,1.57 -4.7,0.92 -9.27,-2.22 -10.2,-7.01 -0.9,-4.8 2.15,-9.47 6.86,-10.41 4.27,-0.86 18.83,-1.46 36.43,-1.83 25,-0.52 54.59,-0.74 71.09,-0.78 0.76,-6.2 2.12,-19.26 3.56,-34.09l-97.68 0c-4.79,0 -8.68,-3.96 -8.68,-8.87 0,-4.88 3.89,-8.87 8.68,-8.87l99.35 0 0.34 -3.86c0.56,-6.27 1.81,-12.14 3.23,-17.37 -0.42,-8.6 -0.53,-16.52 -0.2,-22.97 -7.01,-0.65 -16.94,-1.28 -28.33,-1.75 -23.58,0.81 -54.64,2.03 -83.42,3.64 -29.5,1.62 -56.67,3.65 -71.03,5.94l-6.36 1.01c-14.39,2.29 -20.89,3.32 -24.33,4.87 -1.96,0.89 -3.58,2.66 -6.45,5.85 -1.9,2.08 -4.28,4.68 -7.81,8.22l-0.28 0.28 -7.92 8.01 0.02 0c-12.2,12.47 -15.7,16.04 -27.23,19.36 -34.96,10.07 -73.99,22.95 -107.55,34.02l-10.56 3.47c-4.94,1.62 -10.16,2.21 -15.13,1.66 -5.77,-0.64 -11.33,-2.78 -15.97,-6.51 -4.66,-3.72 -8.43,-8.96 -10.66,-15.78 -2.07,-6.25 -2.84,-13.82 -1.85,-22.75 1.88,-16.92 4.32,-44.03 6.05,-64.25 -7.1,4.86 -13.97,8.03 -22.05,7.73 -4.78,-0.15 -8.5,-4.26 -8.36,-9.13 0.04,-1.13 0.3,-2.2 0.7,-3.18 -34.81,2.03 -92.37,-15.38 -119.38,-54.69 -29.24,-42.53 -39.18,-107.97 -45.68,-127.03 -0.63,-1.9 23.38,87.36 73.54,91.83 28.31,2.53 64.97,3.95 100.83,3.64 9.29,-1.49 21.82,-3.87 36.67,-7.6 33.15,-8.28 35.64,-67.98 35.64,-67.98 0.12,0.1 0.14,1.88 0.1,4.83 1.46,-32.54 1.62,-76.84 0.6,-124.92 -1.58,-75.51 -6.1,-160.17 -13,-223.13 -7.8,-71.56 -26.28,-90.66 -26.34,-90.71 -3.74,-3.98 -3.54,-10.25 0.45,-14.01 3.98,-3.77 10.27,-3.58 14.01,0.42 0.06,0.06 19.71,20.44 29.46,85.35 4.62,-17.46 8.82,-33.73 9.98,-38.53 7.47,-30.89 14.41,-59.62 51.73,-86.61 22.71,-16.41 51.67,-19.89 81.26,-17.04 28.56,2.73 57.69,11.31 81.98,19.53 30.81,10.42 50.38,16.13 70.21,19.18 19.61,3.03 39.83,3.49 71.84,3.51l0.33 0c32.01,-0.02 52.23,-0.49 71.84,-3.51 19.81,-3.06 39.4,-8.76 70.21,-19.18 24.29,-8.23 53.43,-16.8 82,-19.53 29.57,-2.85 58.55,0.63 81.24,17.04 37.32,26.99 44.26,55.72 51.74,86.61 1.49,6.17 10.52,27.88 18.64,47.19 9.19,-71.74 30.58,-93.95 30.63,-94.01 3.77,-4 10.03,-4.19 14.04,-0.42 3.98,3.76 4.17,10.03 0.42,14.01 -0.05,0.06 -18.52,19.15 -26.34,90.71 -6.88,62.95 -11.4,147.61 -13,223.13 -1.38,66.32 -0.55,125.48 2.86,156.45 5.01,14.89 13.78,29.85 29.21,33.71 14.32,3.58 26.46,5.92 35.64,7.43 35.99,-0.19 74.16,-3.56 95.21,-5.56 47.35,-4.5 70.03,-93.73 69.42,-91.83 -6.12,19.06 -15.52,84.51 -43.13,127.03 -25.36,39.11 -79.26,56.56 -112.16,54.73 0.86,1.31 1.37,2.86 1.43,4.56 0.16,4.86 -3.58,8.98 -8.36,9.13 -8.03,0.3 -12.94,-2.54 -18.84,-7.3 1.72,19.99 4.06,46 5.88,62.4 0.98,8.93 0.19,16.53 -1.84,22.75 -2.26,6.83 -6.02,12.06 -10.66,15.78 -4.69,3.75 -10.21,5.87 -15.98,6.51 -4.96,0.55 -10.16,-0.04 -15.13,-1.66l-10.55 -3.47c-33.58,-11.07 -72.61,-23.95 -107.56,-34.02 -11.52,-3.32 -15,-6.89 -27.22,-19.36l-0.26 -0.27 -7.87 -7.99c-3.46,-3.43 -5.86,-6.1 -7.83,-8.24 -2.89,-3.17 -4.54,-4.96 -6.49,-5.85 -3.43,-1.55 -9.93,-2.58 -24.31,-4.87l-6.38 -1.01c-9.49,-1.51 -24.56,-2.91 -42.17,-4.15 -1.85,0.97 -4.08,1.25 -6.24,0.66 -2.1,-0.59 -4.86,-1.1 -8.14,-1.6l-14.46 -0.85c-22.42,-1.26 -46.21,-2.28 -66.78,-3.05 -19.61,-0.02 -37.56,0.43 -48.57,1.24 0.31,6.49 0.18,14.46 -0.28,23.11 1.42,5.25 2.69,11.16 3.25,17.43l0.02 0.28 0.3 3.3 98.83 0c4.81,0 8.7,3.99 8.7,8.87 0,4.91 -3.89,8.87 -8.7,8.87l-97.17 0c1.44,14.81 2.81,27.89 3.56,34.09 16.6,0.04 45.84,0.26 70.56,0.78 17.6,0.37 32.14,0.97 36.37,1.83 4.7,0.95 7.76,5.63 6.83,10.41 -0.94,4.82 -5.54,7.94 -10.24,7 -3.39,-0.7 -16.8,-1.22 -33.3,-1.57 -21.91,-0.46 -50.91,-0.65 -68.55,-0.69l1.37 17.54 1.66 22.42 99.32 0zm-312.13 -350.75c0.03,-7.63 -0.52,-14.61 -1,-20.73 -1.44,-18 -2.38,-30.27 11.98,-36.88l0 -0.02c6.47,-2.97 20.75,-5.06 43.57,-6.51 21.01,-1.34 50.93,-2.34 90.21,-3.11 15.96,-0.33 31.24,-0.5 45.52,-0.5 14.28,0 29.57,0.16 45.53,0.5 39.23,0.77 69.05,1.75 89.98,3.09l0.63 0.06c22.36,1.44 36.37,3.5 42.9,6.44 14.52,6.54 13.52,18.85 12.08,36.91l0 0.04c-0.45,5.55 -0.96,11.82 -1.02,18.63l3.42 0c5.77,0 10.86,2.64 14.48,6.57l0.67 0.79c1.6,1.92 2.89,4.15 3.76,6.51 22.56,5.87 78.92,12.99 106.4,-51.11 15.42,-36.01 29.56,-102.94 40.52,-166.33 -0.92,-0.77 -1.71,-1.77 -2.27,-2.93 -6.55,-13.58 -45.31,-96.43 -52.73,-117.22 -4.13,-11.61 -8.21,-23.02 -11.94,-32.63 -0.51,12.31 -3.39,24.92 -8.64,36.86 -43.02,98.9 -165.22,17.23 -208.41,-19.96l14.52 28.25c8.56,16.62 14.69,28.48 15.42,30.66 2.28,6.73 2.34,12.58 0.45,19.04 -0.37,1.2 -0.8,2.42 -1.28,3.62l-21.82 86.34c-4.1,8.49 -10.8,13.88 -21.38,14.63 -39.16,-0.14 -78.35,-0.26 -117.51,-0.4 -9.71,0.03 -14.75,-3.91 -17.95,-9.45l-29.47 -88.01c-1.11,-2.3 -2,-4.54 -2.66,-6.73 -1.92,-6.46 -1.85,-12.31 0.44,-19.04 0.79,-2.34 7.3,-14.32 16.4,-31.08 18.69,-34.42 48.68,-89.64 59.14,-114.52l-0.3 0.04c-18.43,2.05 -51.14,-1.88 -86.45,-6.09 -38.1,-4.56 -79.33,-9.46 -106.77,-7.49 -17.09,1.22 -29.04,8.01 -37.97,17.56 3.45,-1.85 7.18,-3.39 11.16,-4.55 63.13,-18.58 173.28,52.5 177.06,84.14 -39.6,35.4 -167.68,124.81 -211.96,23.06 -5.27,-11.99 -8.16,-24.7 -8.65,-37.06 -3.74,9.67 -7.85,21.14 -12.02,32.83 -6.31,17.7 -33.21,90.5 -45.12,120.19 10.94,63.37 25.07,130.3 40.49,166.29 29.52,68.87 92.41,55.53 110.87,49.86 0.96,-2.22 2.29,-4.26 3.87,-6.02l0.04 -0.06c1.65,-1.81 3.62,-3.34 5.84,-4.46zm380.26 19.17c-1.57,2.7 -4.82,4.72 -8.71,5.02l-1.87 0.02 0 0.02c-40.37,-2.48 -78.97,-4.17 -116.97,-5.06l-125 0c-37.98,0.89 -76.62,2.56 -117.01,5.06l-0.52 0.01 0 39.65 0.15 -1.2 0.04 -0.17 0.38 -2.32c0.35,-4.39 4.84,-8.03 10.61,-8.3 50.26,-2.58 105.4,-3.41 160.66,-3.03 63.59,0.47 126.96,2.57 183.17,5.48 6.25,0 11.34,3.97 11.34,8.85l0 2.05 5.76 0 0 -46.08 -2.03 0zm-359.68 -41.01c0.47,5.86 1,12.45 1.06,19.75l52.23 0c-0.04,-18.77 -0.15,-32.3 -0.25,-45.3 -6.32,0.3 -12.14,0.61 -17.45,0.96 -19.61,1.24 -30.97,2.64 -34.6,4.29l0 -0.02 -0.04 0.02c-2.48,1.12 -1.85,8.89 -0.94,20.3zm338.16 19.75c0.06,-7.32 0.59,-13.93 1.08,-19.81 0.9,-11.37 1.53,-19.12 -0.9,-20.2 -3.77,-1.69 -15.11,-3.09 -34.48,-4.33l-0.33 -0.02c-5.33,-0.35 -11.16,-0.67 -17.51,-0.96l-0.12 24.59 -0.11 20.73 52.39 0zm-73.83 -46.17c-12.36,-0.43 -26.18,-0.79 -41.51,-1.12 -0.02,8.01 -0.41,15.76 -0.75,23.33l0 0.04c-0.41,7.82 -0.78,15.58 -0.67,23.92l42.67 0 0.11 -20.81 0.14 -25.36zm-63.4 -1.51c-9.83,-0.13 -20.33,-0.2 -31.23,-0.2l-22.32 0.09c0,8.2 -0.38,16.09 -0.75,23.84l0 0.04c-0.41,7.82 -0.77,15.58 -0.67,23.92l53.54 0c-0.1,-8.41 0.33,-16.75 0.73,-25.18 0.35,-7.18 0.72,-14.52 0.7,-22.5zm-75.45 0.2l-0.79 0.02c-18.73,0.37 -35.37,0.81 -49.98,1.31l0.35 46.15 48.98 0c-0.1,-8.41 0.33,-16.75 0.74,-25.18 0.34,-7.12 0.69,-14.38 0.69,-22.3zm-86.83 527.39c1.38,13.56 2.18,30.95 2.69,48.9 45.7,-3.54 90.8,-5.29 135.14,-5.28 45.44,0.02 90.11,1.88 133.88,5.54 0.28,-18.1 0.7,-35.64 1.51,-49.15 -45.44,-1.12 -90.11,-1.77 -135.13,-1.77 -45.01,0 -90.69,0.57 -138.09,1.76zm3.11 66.72l0.41 24.09c0.2,12.68 0.39,24.15 0.7,32.9l9.33 -2.02 0.31 -0.06 16.64 -3.74c1.2,-0.28 2.42,-0.37 3.62,-0.31l2.68 0.02 0.2 -53.23c-11.25,0.67 -22.54,1.47 -33.89,2.35zm267.5 58.49c0.42,-11.36 0.59,-27.84 0.75,-45.74l0.13 -12.45c-9.67,-0.84 -19.37,-1.55 -29.11,-2.2l-0.26 54.09 1.24 0.22 0 -0.02 27.25 6.1zm-288.67 -34.18c-0.5,-33.49 -1.18,-75.65 -4.64,-98.53l0.04 0 -0.07 -0.8c-0.17,-4.81 4.35,-8.85 10.18,-9.11l-4.74 -0.02c-12.08,0 -50.3,2.64 -71.45,-0.69 2.69,2.17 2.53,3.37 -3.66,3.76 -8.62,0.53 -17.47,1.46 -26.36,2.82l0.74 -0.02 3.8 157.99c6.33,-1.87 12.38,-2.95 17.93,-2.95 25.96,0 53.89,-1.37 79.59,1.87l0 -0.02 0 -0.67 0 -5.23 0.06 0 -0.24 -5.04 0 -0.03c-0.61,-8.57 -0.89,-24.68 -1.18,-43.33zm101.92 -110.25c18.21,-0.18 36.25,-0.26 54.23,-0.26 27.53,0.02 54.85,0.24 82.22,0.69 -7.82,-0.59 -14.72,-0.98 -19.65,-0.85 -38.56,0.99 -46.33,-27.54 -47.74,-40.6 -2.4,-0.84 -4.51,-1.76 -6.28,-2.77 -3.44,-0.98 -6.04,-4.05 -6.31,-7.86l-5.76 -77.29c-1.2,-16.01 -1.75,-27.26 -1.95,-28.72l-0.22 -0.7 -0.21 0.72c-0.18,1.53 -0.79,13 -1.97,29.02l-5.72 76.98c-0.28,3.82 -2.91,6.9 -6.34,7.88 -0.94,0.53 -1.98,1.05 -3.1,1.53 -1.12,9.88 -6.65,33.96 -31.2,42.24zm208.59 4.45c2.08,1.75 3.28,4.23 3.05,6.86 -1.88,20.55 -2.26,56.28 -2.55,87.52 -0.22,23.35 -0.44,44.37 -1.18,54.76 -0.09,1.52 -0.16,3.33 -0.16,5.29l-0.06 0 0.04 4.04 0.08 0.96 0 0.2 -0.06 0 0.02 0.5c1.44,-0.22 3.17,-0.36 5.31,-0.34 32.12,0.12 68.04,1.75 86.71,4.26l3.84 -160.58c-3.86,-0.55 -7.77,-0.96 -11.76,-1.22 -6.79,-0.45 -9.86,-2.26 -11.06,-5.39 -16.95,3.56 -51.05,3.43 -72.21,3.15zm-233.4 77.98l-0.22 54.52 37.32 0.22 0.44 -55.41 0.08 -0.65c-12.47,0.3 -25,0.73 -37.61,1.32zm59.42 -1.73l0.07 0.61 -0.44 55.99 37.54 0.23 0.7 -56.2 0.08 -0.63 -18.58 -0.1 -19.36 0.1zm101.62 57.2l0.26 -55.2c-13.98,-0.73 -28.04,-1.27 -42.15,-1.62l0.06 0.65 -0.7 55.91 42.54 0.26zm-112.2 -510c0.22,12.12 0.55,23.9 0.89,35.71 0.53,18.6 1.08,37.14 1.2,53.07l42.6 0.63c0.12,-15.96 0.68,-34.88 1.2,-53.7 0.32,-11.77 0.66,-23.61 0.89,-35.71l-46.77 0zm-19.87 88.47c-0.1,-18.04 -0.61,-35.29 -1.09,-52.43l-0.92 -36.04 -43.91 0 -0.18 10.2 0 0.02 0 0.3c-0.56,27.14 -1.24,60.12 0.03,77.3l46.07 0.66zm-67.83 -0.97c-1.18,-18.33 -0.51,-50.79 0.04,-77.54l0.18 -9.96 -48.31 0c-0.45,13.83 -0.45,30.73 -0.22,46.39 0.31,21.46 -9.28,38.34 -6.86,40.31l55.18 0.8zm154.34 2.25l45.86 0.67c1.55,-16.23 0.83,-51.32 0.24,-79.9l0 -0.3 0 -0.02 -0.18 -10.2 -43.89 0c-0.23,11.49 -0.59,23.75 -0.94,36.04 -0.48,17.56 -1,35.07 -1.09,53.7zm67.59 0.98l52.48 0.75 0 -91.48 -52.46 0 0.18 9.96c0.59,28.39 1.28,63.26 -0.2,80.77zm75.17 -90.72l0 99.24c4.6,0.51 8.67,1.05 12.09,1.61l6.38 0.99c16.05,2.55 23.29,3.71 28.66,6.15 5.28,2.38 7.75,5.08 12.21,9.98l0.02 0.04c1.87,2.05 4.15,4.59 7.2,7.62l0 0 0.06 0.08 7.99 8.1 0.28 0.26c9.68,9.88 12.47,12.75 19.63,14.79l0.12 0.04c-3.74,-13.63 -5.42,-24.43 -7.04,-34.91 -3.15,-20.29 -6.16,-39.55 -25.16,-77.9 -0.67,-1.33 -0.96,-2.73 -0.94,-4.11 -0.73,-1.61 -1.49,-3.28 -2.2,-5.07 -2.17,-5.45 -5.04,-10.41 -8.39,-14.77 -5.86,-7.67 -12.88,-14.97 -21.75,-18.58l-4.72 -1.91c-0.94,1.36 -2.1,2.58 -3.41,3.67l0.01 0.02c-3.65,3.03 -8.56,4.69 -13.76,4.69l-7.27 0zm-361.02 98.73c-3.67,-9.42 -6.69,-29.96 -7.01,-52.19 -0.22,-15.63 -0.22,-32.49 0.22,-46.54l-0.1 0c-5.09,0 -9.99,-1.61 -13.67,-4.64 -2.71,-2.23 -4.71,-5.07 -5.7,-8.44 -5.37,0.09 -14.08,1.14 -26.93,9.94 -31.51,21.56 -20.73,43.13 -32.34,49.74 -0.28,0.16 -0.76,0.26 -1.37,0.26 -9.81,28.66 -7.42,50.3 -9.98,67.02 -1.67,10.86 -3.4,22.02 -7.4,36.34l4.7 -1.36c7.14,-2.05 9.94,-4.91 19.61,-14.79l0 0.02 0.04 -0.04 7.93 -8.04 0.33 -0.33c2.97,-2.99 5.35,-5.61 7.24,-7.69 4.46,-4.89 6.94,-7.6 12.21,-9.98 5.37,-2.44 12.62,-3.6 28.67,-6.15l6.36 -0.99c4.64,-0.74 10.46,-1.45 17.17,-2.12zm-124.15 57.46l0.31 -1.29c5.85,-17.96 7.87,-31.08 9.81,-43.73 2.78,-18.12 0.48,-41.15 11.36,-71.95 -3.48,-3.13 -6.91,-7.46 -9.7,-13.22 -10.59,-22.05 -9.42,-46.84 -16.09,-49.9 -0.33,4.48 -0.42,9.93 -0.51,15.66 -0.06,4.13 -0.13,8.49 -0.26,12.42 -0.96,27.17 -5.59,54.53 -33.44,53.53 -33.08,-1.16 -53.72,11.66 -69.26,23.6 -1.6,19.03 -4.96,58.44 -7.43,80.67 -0.69,6.25 -0.24,11.3 1.04,15.17 1.09,3.32 2.8,5.8 4.88,7.45 2.03,1.61 4.52,2.59 7.14,2.87 2.56,0.28 5.35,-0.04 7.99,-0.9l10.56 -3.47c26.19,-8.62 55.69,-18.34 83.6,-26.89zm712.11 -73.73c-16.49,-12.55 -38.18,-25.92 -71.06,-24.76 -24.02,0.87 -30.77,-19.32 -32.81,-42.3 -2.93,10.39 -7.12,19.3 -11.97,25.81 -4.21,5.65 -9.08,9.8 -14.28,11.88 -2.27,0.9 -4.56,1.46 -6.88,1.62 9.76,24.31 12.23,40.09 14.77,56.51 1.98,12.65 4.01,25.71 9.8,43.57 29.26,8.89 60.53,19.2 88.14,28.29l10.58 3.47c2.64,0.89 5.4,1.18 7.99,0.9 2.6,-0.28 5.1,-1.24 7.14,-2.87 2.07,-1.66 3.78,-4.13 4.88,-7.45 1.26,-3.86 1.73,-8.91 1.02,-15.17 -2.42,-21.79 -5.7,-60.09 -7.33,-79.51zm-177.57 634.56c-5,-3.16 -9.13,-7.73 -12.53,-13.23l-36.59 3.62c-36.35,3.56 -83.37,8.21 -103.94,9.52 -2.93,5.57 -12.9,15.7 -17.35,20.66 -2.19,2.46 -4.24,4.62 -5.98,6.41 12.88,4.39 32.95,2.12 63.24,-1.31 15.24,-1.71 32.86,-3.72 52.85,-5.29 35.42,-2.77 52.34,-8.24 60.29,-20.36zm-20.04 -30.21c-7.23,-22.82 -7.69,-51.54 -6.4,-69.25 0.1,-1.44 0.1,-4.19 0.16,-6.98 -21.52,-6.87 -43.52,-11.93 -66.67,-13.52 -10.44,-0.72 -30.77,-1.16 -56.6,-1.29 -0.65,1.7 -1.83,3.25 -3.45,4.3 -0.87,0.55 1.62,23.98 2.36,49.42 0.53,17.84 1.07,36.1 0.42,49.49 21.57,-1.51 65.29,-5.83 99.45,-9.19l30.71 -2.99zm-146.99 -91.08c-10.76,0.02 -22.17,0.06 -34,0.17 0.03,30.1 0.36,57.5 1.5,79.69 1.26,24.26 3.42,42.76 7.18,52.5 0.72,1.88 1.53,3.56 2.46,5.09l6.71 -7.53c5.25,-5.85 10.81,-12.08 13.43,-15.25 1.16,-0.15 2.93,-5.9 2.42,-8.36 0.59,-10.52 -0.04,-31.57 -0.65,-52.06 -0.63,-21.23 -1.24,-41.96 0.94,-54.25zm-107.5 1.45l-24.59 0.69c1.77,12.47 1.2,32.04 0.61,52.08 -0.55,18.93 -1.12,38.35 -0.73,49.51 -0.5,4.43 1.54,9.88 3.67,12.28 2.81,3.28 7.42,8.43 11.84,13.36 2.53,2.83 5.02,5.59 7.24,8.14 5.77,-11.84 4.78,-40.31 3.41,-79.66 -0.59,-16.88 -1.23,-35.75 -1.44,-56.4zm-40.8 1.25c-57.5,2.12 -106.79,5.58 -120.43,10.64l-4.43 1.49c0.06,2.81 0.06,5.56 0.16,7 1.4,18.35 0.94,48.61 -7.03,71.78l37.63 2.56c32.65,2.26 72,5 93.14,6.11 -0.61,-13.32 -0.08,-31.12 0.45,-48.56 0.73,-25.42 3.29,-48.81 2.38,-49.38 -0.72,-0.49 -1.35,-1.04 -1.88,-1.65zm-140.13 108.05c-3.07,4.37 -6.67,8.03 -10.92,10.64 7.99,12.05 24.96,17.49 60.35,20.26 19.95,1.57 37.54,3.58 52.74,5.29 30.63,3.47 50.93,5.76 63.66,1.48 -1.91,-1.88 -4.31,-4.27 -6.86,-7.1 -7.17,-7.99 -14.79,-16.49 -16.53,-19.42 -0.28,-0.5 -0.55,-1.08 -0.79,-1.74 -20.63,-1.01 -62.34,-3.9 -96.76,-6.3l-44.89 -3.1zm-11.45 183.41c0,-4.87 3.89,-8.83 8.67,-8.83 4.78,0 8.64,3.96 8.64,8.83l0.08 50.89 0.08 50.92c0,4.86 -3.89,8.83 -8.67,8.83 -4.78,0 -8.67,-3.97 -8.67,-8.83l-0.05 -50.92 -0.08 -50.89zm71.41 -5.06c0.87,-4.8 5.39,-7.99 10.09,-7.1 4.7,0.87 7.84,5.49 6.98,10.29 -1.67,9.11 -1.63,31.47 -1.61,52.8 0.06,25.44 0.1,49.66 -4.11,55.23 -2.89,3.87 -8.34,4.59 -12.14,1.64 -3.78,-2.97 -4.48,-8.5 -1.59,-12.38 0.59,-0.79 0.55,-22.1 0.51,-44.5 -0.03,-22.15 -0.07,-45.36 1.87,-55.99zm73.55 23.25c-0.04,-4.89 3.8,-8.89 8.58,-8.95 4.78,-0.06 8.71,3.87 8.77,8.74 0.12,8.82 -0.76,21.31 -1.73,35.23 -1.13,15.96 -2.42,33.95 -2.42,49.82 0,4.9 -3.89,8.87 -8.71,8.87 -4.8,0 -8.69,-3.97 -8.69,-8.87 0,-16.11 1.31,-34.63 2.48,-51.08 0.98,-13.78 1.85,-26.14 1.73,-33.76zm-197.07 66.92c0.66,4.86 -2.65,9.35 -7.39,10.03 -4.74,0.67 -9.13,-2.69 -9.81,-7.53l-0.62 -4.46c-2.29,-15.93 -10.01,-69.16 -10.01,-86.62 0,-2.52 1.02,-4.77 2.68,-6.4 1.16,-1.32 2.44,-2.62 3.79,-3.86 -7.63,-4.68 -13.73,-13.45 -18.41,-23.94 -8.6,-19.22 -13.04,-45.31 -13.12,-58.44 -0.02,-4.87 3.84,-8.85 8.62,-8.87 4.78,0 8.68,3.92 8.7,8.8 0.08,11.42 3.99,34.2 11.57,51.16 4.32,9.64 9.47,16.96 14.81,17.26l0.06 0c2.08,0.15 3.44,0.67 4.66,1.26 0.87,0.06 1.69,0.26 2.48,0.57 37.95,-16.94 101.85,-17.65 156.6,-15.9 31.73,-17.64 53.93,-9.13 78.56,-33.99 27.3,-27.56 32.13,-69.46 32.54,-103.58l1.32 -114.09 16.95 0.3 14.1 -0.3c0.94,36.98 3.76,77.33 4.86,114.09 1.02,34.11 1.09,76.09 28.34,103.58 25.4,25.65 48.26,15.83 81.48,35.6 55.1,-1.03 119.6,-2.13 158.04,14.32 0.87,-0.37 1.83,-0.59 2.81,-0.65 1.09,-0.53 2.3,-1.01 4.29,-1.18l0.45 -0.04c5.2,-0.3 10.23,-7.38 14.46,-16.78l0.22 -0.48c7.57,-16.99 11.48,-39.77 11.56,-51.16 0.01,-4.87 3.92,-8.8 8.7,-8.8 4.78,0.02 8.63,4 8.63,8.87 -0.1,13.15 -4.52,39.23 -13.06,58.42l-0.22 0.44c-4.65,10.32 -10.62,18.9 -18.1,23.52 1.57,1.42 3.01,2.91 4.33,4.5l0 0c1.29,1.57 2.08,3.58 2.08,5.79 -0.1,17.62 -7.77,70.32 -10.07,86.39l-0.69 4.65c-0.66,4.84 -5.06,8.2 -9.8,7.53 -4.74,-0.69 -8.03,-5.18 -7.38,-10.03l0.67 -4.66 0 -0.04c2.14,-14.85 8.91,-61.41 9.83,-80.45 -25.81,-25.2 -103.98,-23.67 -168.15,-22.45 -16.88,0.33 -32.87,0.64 -46.86,0.44 -32.36,-0.48 -40.11,10.94 -44.48,17.36 -3.62,5.35 -6.2,9.09 -12.94,9.09 -4.8,0 -8.7,-3.99 -8.7,-8.87 0,-4.91 3.9,-8.87 8.7,-8.87l0.59 -0.04 -0.44 -0.3c-0.69,-0.26 -1.79,-0.63 -1.49,-1.06l0.1 -0.16c-4.09,1.63 -7.78,3.15 -10.9,4.52 -7.1,3.07 -9.56,-3.87 -9.59,-1.63 -0.04,2.12 -6.29,2.12 -6.33,0 -0.04,-1.95 -1.92,3.1 -7.1,2.36 0.42,1.37 0.71,2.79 0.87,4.26 0.48,4.86 -2.97,9.21 -7.73,9.7 -4.78,0.5 -9.04,-3.05 -9.52,-7.89 -0.33,-3.23 -4.76,-6.44 -10.5,-9.22 -12.81,-6.2 -30.34,-8.87 -35.34,-9.06l-18.43 -0.79 -0.3 -0.02c-67.52,-3.01 -170.7,-7.58 -201.34,22.6 0.82,19.26 7.59,66.04 9.69,80.65l0 0.04 0.65 4.48zm499.57 -85.12c0,-4.87 3.89,-8.83 8.67,-8.83 4.76,0 8.65,3.96 8.65,8.83 -0.08,22.62 -0.04,45.27 -0.02,67.89l0.02 33.93c0,4.86 -3.89,8.83 -8.65,8.83 -4.78,0 -8.67,-3.97 -8.67,-8.83l-0.03 -33.93c-0.02,-22.62 -0.04,-45.27 0.03,-67.89zm-71.26 -1.75c-0.92,-4.8 2.15,-9.46 6.86,-10.41 4.7,-0.94 9.27,2.19 10.2,6.99 2.08,10.8 2.12,34.94 2.14,57.63 0,21.8 0.04,42.25 0.61,43.02 2.86,3.93 2.07,9.5 -1.77,12.43 -3.84,2.91 -9.3,2.12 -12.16,-1.81 -3.97,-5.43 -4.01,-28.76 -4.01,-53.64 -0.02,-21.71 -0.05,-44.81 -1.88,-54.22zm-73.72 19.63c0.11,-4.87 4.11,-8.75 8.87,-8.63 4.78,0.1 8.58,4.17 8.47,9.05 -0.19,7.71 0.75,20.38 1.81,34.48 1.2,16.21 2.54,34.39 2.54,50.26 0,4.9 -3.89,8.87 -8.71,8.87 -4.79,0 -8.68,-3.97 -8.68,-8.87 0,-15.57 -1.31,-33.21 -2.49,-48.96 -1.05,-14.3 -2.01,-27.16 -1.81,-36.19zm35.92 -57.67l20.02 -0.35c-5.26,-0.94 -12.14,-0.71 -20.02,0.35zm-82.81 26.42c0.24,-0.04 -0.04,-0.15 -0.44,-0.3l0.44 0.3zm48.08 -1310.37c9.26,-32.78 115.09,-99.49 176.49,-81.42 3.91,1.16 7.59,2.68 10.98,4.47 -8.93,-9.51 -20.84,-16.27 -37.87,-17.49 -27.46,-1.97 -68.69,2.93 -106.77,7.49 -32.45,3.87 -62.71,7.49 -81.71,6.47 7.33,17.86 23.68,50.67 38.89,80.47zm-54.96 -69.75l-32.3 0c-7.45,23.8 -65.94,127.27 -67.55,132.03 -2.95,8.67 -0.22,14.97 7.04,26.6 15.22,24.41 33.8,40.63 40.62,41.73 14.63,2.34 54.33,2.34 68.96,0 6.83,-1.1 25.4,-17.33 40.62,-41.73 7.27,-11.63 10,-17.93 7.04,-26.6 -1.58,-4.76 -56.99,-108.23 -64.44,-132.03zm-126.69 222.28c4.59,-0.65 7.78,-4.87 7.15,-9.44 -0.64,-4.58 -4.86,-7.79 -9.44,-7.14 -0.1,0.02 -40.73,5.14 -67.24,39.77 -25.61,33.44 -36.94,92.97 -36.97,93.14 -0.89,4.53 2.08,8.93 6.62,9.83 4.54,0.89 8.95,-2.08 9.83,-6.63 0.02,-0.16 10.66,-55.94 33.81,-86.19 22.25,-29.07 56.14,-33.33 56.23,-33.35zm225.37 0c-4.58,-0.65 -7.79,-4.87 -7.14,-9.44 0.63,-4.58 4.86,-7.79 9.42,-7.14 0.13,0.02 40.75,5.14 67.26,39.77 25.59,33.44 36.92,92.97 36.96,93.14 0.9,4.53 -2.07,8.93 -6.61,9.83 -4.56,0.89 -8.95,-2.08 -9.83,-6.63 -0.04,-0.16 -10.66,-55.94 -33.81,-86.19 -22.25,-29.07 -56.15,-33.33 -56.24,-33.35zm-137.62 70.99c10.07,2.64 19.75,5.27 30,7.71 9.15,-2.44 18.48,-5.07 27.8,-7.71 19.59,0 36.58,0.59 56.34,0.59 61.45,0 58.92,2.45 60.55,17.28 1.48,13.61 -51.4,13.49 -98.59,12.6 -17.35,-0.33 -34.39,6.9 -47.37,6.9 -11.15,0 -25.42,-7.24 -40.42,-6.9 -48.81,1.09 -106.7,1.83 -105.15,-12.6 1.56,-14.83 -0.94,-17.28 60.53,-17.28 19.75,0 36.77,-0.59 56.32,-0.59zm24.87 -857.37l0 298.02c19.16,0 30.71,-0.16 40.84,-1.46 10.44,-1.31 20.52,-4 37.21,-9.15l0.04 0c1.34,-0.41 2.62,-0.87 3.76,-1.33l0.06 -0.04c19.63,-8.09 28.26,-29.49 30.53,-54.12 2.44,-26.69 -2.58,-56.79 -9.54,-79.37 -1.62,-5.27 -3.38,-10.2 -5.18,-14.55 -15.28,-37.1 -14.3,-61.88 -4.54,-77.91 6.05,-9.9 15.22,-16.38 25.99,-20.26 7.53,-2.7 15.83,-4.11 24.28,-4.55l0 -35.29 15.74 0 0 35.53c23.98,1.93 47.76,10.68 57.49,17.45 17.85,9.01 29.83,30.88 37.63,56.61 11,36.19 14.37,80.92 14.37,105.32 0,16.25 -1.81,34.02 -5.14,52.08 -0.96,34.01 -4.99,66.59 -12.13,94.74 -1.25,4.91 -2.74,9.58 -4.45,14.02 5.74,0.33 11.74,1.02 17.6,1.88 15.68,2.34 30.96,6.14 38.43,8.54 3.72,-6.16 6.65,-12.06 8.72,-18.91 2.91,-9.74 4.25,-21.77 3.84,-39.63 -1.05,-43.73 -1.99,-81.3 -4.15,-119.45 -2.14,-37.85 -5.47,-75.87 -11.35,-120.46l-0.05 -0.46c-0.28,-3.71 -4.64,-11.26 -10.5,-19.13 -6.1,-8.23 -13.67,-16.25 -20,-20.52l8.73 -13.02c7.84,5.25 16.82,14.72 23.89,24.2 7.44,10.02 13.05,20.61 13.54,27.36l0 0c5.9,44.98 9.26,83.2 11.41,121.17 2.12,37.77 3.08,75.73 4.15,119.95 0.47,19.72 -1.09,33.22 -4.48,44.48 -2.27,7.56 -5.29,13.97 -9.03,20.38 28.89,13.24 52.91,32.93 70.62,53.63 25.1,29.35 37.75,61.51 34.03,81.26 -0.89,4.82 -5.44,7.95 -10.15,7.04 -4.72,-0.93 -7.8,-5.57 -6.89,-10.37 2.76,-14.85 -8.4,-41 -30.04,-66.3 -18.43,-21.53 -44.3,-41.86 -75.65,-53.7 -5.21,-1.94 -20.94,-6.04 -37.57,-8.52 -8.22,-1.22 -16.5,-2.04 -23.62,-1.98 -10.07,16.62 -24.18,29.64 -41.65,40.88 -36.74,23.64 -138.38,43.8 -181.24,41.82l-37.65 0c-42.85,1.98 -144.5,-18.18 -181.21,-41.82 -16.05,-10.29 -26.93,-22.67 -34.88,-37.87 -14.32,-2.08 -28.13,-1.71 -41.27,0.59 -35.51,6.2 -66.31,26.49 -89.03,50.49 -22.62,23.89 -37.1,51.15 -40.16,71.7 -0.71,4.8 -0.77,9.1 -0.12,12.77 0.83,4.82 -2.3,9.42 -7.04,10.29 -4.71,0.86 -9.24,-2.36 -10.07,-7.17 -0.98,-5.59 -0.94,-11.82 0.05,-18.53 3.56,-23.82 19.74,-54.81 44.85,-81.36 14.5,-15.29 32.02,-29.24 51.91,-39.62 -8.95,-10.22 -17.88,-23.78 -17.08,-55.84 1.05,-44.4 3.11,-85.61 6.38,-126.78 3.25,-41 7.71,-82.49 13.65,-127.59l0 0c0.5,-7.02 5.37,-23.49 13.18,-36.64 5.7,-9.62 13.18,-17.91 22.23,-20.87l4.8 14.95c-4.84,1.57 -9.54,7.18 -13.51,13.89 -6.59,11.11 -10.64,24.35 -11.03,29.78l-0.07 0.46c-5.85,44.5 -10.3,85.86 -13.58,127.27 -3.27,41.42 -5.33,82.34 -6.38,125.91 -0.72,29.68 8.38,39.88 16.33,48.57 10.11,-4.09 20.73,-7.23 31.79,-9.17 11.66,-2.03 23.76,-2.73 36.25,-1.79 -1.9,-5.49 -3.62,-11.31 -5.17,-17.45 -5.43,-21.34 -9.21,-45.24 -11.25,-70.38 -6.57,-25.67 -10.15,-51.74 -10.15,-74.79 0,-24.4 3.36,-69.12 14.37,-105.32 7.8,-25.71 19.75,-47.57 37.57,-56.6 10.35,-7.24 36.82,-16.74 62.45,-17.74l0 -35.25 15.72 0 0 35.66c6.75,0.66 13.32,2.01 19.38,4.2 10.76,3.87 19.94,10.35 25.98,20.24 9.78,16.03 10.75,40.81 -4.52,77.91 -1.81,4.37 -3.58,9.31 -5.22,14.6 -6.94,22.58 -11.96,52.65 -9.5,79.33 2.25,24.59 10.9,46.01 30.49,54.1l-4.25 9.02 4.25 -8.99c1.2,0.49 2.5,0.96 3.87,1.37l0.02 -0.04c16.71,5.15 26.78,7.83 37.2,9.15 7.88,1.02 16.62,1.33 29.15,1.42l0 -297.98 15.74 0zm-417.01 775.43l-58.89 -103.39 -58.9 103.39 117.79 0zm894.52 63.03c18.73,0 35.74,7.63 48.06,19.92l0.04 0.04c12.31,12.33 19.92,29.33 19.92,48.04 0,18.76 -7.62,35.79 -19.92,48.09l-0.04 0c-12.3,12.29 -29.31,19.91 -48.06,19.91 -18.76,0 -35.78,-7.62 -48.08,-19.91 -12.3,-12.3 -19.91,-29.33 -19.91,-48.09 0,-18.73 7.61,-35.73 19.91,-48.06l0 -0.04c12.29,-12.28 29.31,-19.91 48.08,-19.91zm34.02 33.97c-8.69,-8.69 -20.71,-14.06 -34.02,-14.06 -13.26,0 -25.3,5.39 -34,14.08l-0.02 -0.02c-8.69,8.69 -14.08,20.75 -14.08,34.03 0,13.28 5.41,25.33 14.1,34.01 8.69,8.69 20.73,14.08 34,14.08 13.3,0 25.37,-5.37 34.05,-14.06l-0.03 -0.02c8.68,-8.68 14.09,-20.73 14.09,-34.01 0,-13.3 -5.39,-25.32 -14.06,-34l-0.03 -0.04zm-20.59 -216.91l67.79 119.03c1.11,1.75 1.72,3.66 1.92,5.61 0.2,2.25 -0.16,4.68 -1.04,6.77l-0.01 0c-0.84,2.01 -2.22,4.01 -4.01,5.48l-0.04 0.09c-1.83,1.49 -4.15,2.55 -6.84,2.79l-0.89 0.08 -0.08 0 -140.24 0 0 0c-2.87,0.09 -5.39,-0.65 -7.47,-1.94 -2.54,-1.57 -4.33,-3.93 -5.25,-6.49 -0.79,-2.12 -1,-4.48 -0.71,-6.65 0.3,-2.36 1.25,-4.69 2.72,-6.61l67.04 -117.71c1.31,-2.64 3.3,-4.62 5.65,-5.96 2.24,-1.29 4.84,-1.96 7.31,-2.05l0.1 0c2.36,-0.06 4.82,0.38 7.04,1.34l0.03 0c2.79,1.24 5.34,3.3 6.98,6.24zm45.48 119.91l-58.91 -103.39 -58.88 103.39 117.79 0zm-1012.32 63.03c18.76,0 35.78,7.63 48.08,19.91l0 0.04c12.29,12.33 19.91,29.33 19.91,48.06 0,18.76 -7.62,35.79 -19.91,48.09 -12.3,12.29 -29.31,19.91 -48.08,19.91 -18.74,0 -35.75,-7.62 -48.06,-19.91l-0.04 0c-12.3,-12.3 -19.92,-29.33 -19.92,-48.09 0,-18.76 7.64,-35.77 19.92,-48.08l0.04 0.02c12.31,-12.34 29.31,-19.94 48.06,-19.94zm34.01 33.97l-0.02 0.02c-8.68,-8.69 -20.73,-14.08 -34,-14.08 -13.3,0 -25.33,5.37 -34.01,14.06l0 0.04c-8.69,8.68 -14.1,20.72 -14.1,34 0,13.28 5.39,25.33 14.08,34.01l0 0.02c8.69,8.69 20.73,14.06 34.03,14.06 13.28,0 25.31,-5.39 34,-14.08 8.69,-8.68 14.1,-20.73 14.1,-34.01 0,-13.28 -5.39,-25.34 -14.08,-34.03zm268.53 -200.17c-17.14,8.91 -40.95,7.85 -64.8,-11.64 -28.65,-23.41 -20.35,-71.86 13.93,-83.07 60.8,-19.91 109.8,64.07 50.87,94.71zm338.2 0c17.14,8.91 40.95,7.85 64.81,-11.64 28.65,-23.41 20.34,-71.86 -13.93,-83.07 -60.8,-19.91 -109.8,64.07 -50.88,94.71z"/>
   </g>
  </g>
  <g>
   <path class="fil4" d="M11871.67 1152.13c0,77.25 -34.86,115.92 -104.65,115.92 -66.78,0 -100.2,-37.17 -100.2,-111.53l0 -168.35 32.24 0 0 166.24c0,56.42 23.86,84.67 71.43,84.67 45.93,0 68.93,-27.26 68.93,-81.78l0 -169.13 32.24 0 0 163.96zm290.7 111.33l-39.58 0 -141.67 -219.46c-3.61,-5.51 -6.56,-11.27 -8.84,-17.24l-1.12 0c0.99,5.89 1.5,18.48 1.5,37.81l0 198.89 -32.23 0 0 -275.29 41.87 0 137.82 215.99c5.76,8.91 9.5,15.07 11.14,18.41l0.79 0c-1.31,-7.92 -1.97,-21.43 -1.97,-40.5l0 -193.9 32.31 0 0 275.29zm104.38 0l-32.23 0 0 -275.29 32.23 0 0 275.29zm277.06 -275.29l-101.96 275.29 -35.52 0 -99.81 -275.29 35.91 0 76.22 218.28c2.43,7.01 4.26,15.14 5.57,24.38l0.72 0c1.05,-7.67 3.14,-15.93 6.35,-24.77l77.79 -217.89 34.73 0zm185.46 275.29l-145.87 0 0 -275.29 139.78 0 0 29.16 -107.54 0 0 91.61 99.47 0 0 28.97 -99.47 0 0 96.39 113.63 0 0 29.17zm250.4 0l-38.4 0 -46.14 -77.2c-4.19,-7.14 -8.24,-13.24 -12.25,-18.35 -4,-5.04 -8.05,-9.17 -12.19,-12.32 -4.2,-3.21 -8.65,-5.56 -13.43,-7.02 -4.79,-1.5 -10.22,-2.22 -16.26,-2.22l-26.47 0 0 117.1 -32.23 0 0 -275.29 82.18 0c11.99,0 23.13,1.51 33.29,4.51 10.16,3.02 19,7.54 26.47,13.71 7.53,6.15 13.37,13.82 17.56,22.93 4.26,9.17 6.36,19.85 6.36,32.17 0,9.58 -1.45,18.42 -4.33,26.41 -2.87,8.01 -6.95,15.15 -12.25,21.36 -5.31,6.29 -11.73,11.67 -19.2,16.06 -7.54,4.39 -15.93,7.86 -25.29,10.29l0 0.71c4.65,2.1 8.64,4.4 12.06,7.02 3.34,2.68 6.62,5.77 9.63,9.38 3.07,3.53 6.15,7.6 9.17,12.19 3.02,4.52 6.36,9.77 10.02,15.79l51.71 82.77zm-165.15 -246.13l0 99.87 43.78 0c8.06,0 15.53,-1.25 22.34,-3.67 6.88,-2.43 12.79,-5.89 17.76,-10.48 4.98,-4.52 8.91,-10.09 11.73,-16.71 2.82,-6.56 4.19,-13.97 4.19,-22.16 0,-14.74 -4.71,-26.2 -14.28,-34.46 -9.51,-8.25 -23.33,-12.39 -41.35,-12.39l-44.17 0zm190.04 234.99l0 -38c4.39,3.87 9.63,7.27 15.67,10.36 6.08,3.07 12.51,5.69 19.19,7.8 6.75,2.09 13.5,3.73 20.25,4.91 6.82,1.11 13.11,1.7 18.81,1.7 19.86,0 34.66,-3.67 44.5,-11.07 9.76,-7.35 14.68,-17.95 14.68,-31.72 0,-7.47 -1.64,-13.89 -4.92,-19.4 -3.27,-5.49 -7.8,-10.55 -13.5,-15.07 -5.76,-4.58 -12.58,-8.91 -20.44,-13.1 -7.94,-4.13 -16.38,-8.53 -25.49,-13.11 -9.57,-4.85 -18.54,-9.83 -26.87,-14.81 -8.32,-4.98 -15.53,-10.48 -21.68,-16.51 -6.17,-6.04 -10.95,-12.84 -14.49,-20.45 -3.53,-7.61 -5.31,-16.52 -5.31,-26.74 0,-12.58 2.75,-23.46 8.26,-32.77 5.5,-9.3 12.78,-16.91 21.69,-22.93 8.98,-6.03 19.2,-10.48 30.67,-13.43 11.4,-2.95 23.13,-4.46 34.99,-4.46 27.14,0 46.92,3.27 59.38,9.82l0 36.31c-16.25,-11.27 -37.16,-16.91 -62.58,-16.91 -7.07,0 -14.08,0.72 -21.16,2.17 -7.01,1.49 -13.3,3.92 -18.81,7.21 -5.5,3.33 -9.96,7.66 -13.43,12.91 -3.47,5.24 -5.18,11.6 -5.18,19.2 0,7.01 1.31,13.1 3.94,18.21 2.62,5.11 6.48,9.76 11.6,14.02 5.11,4.19 11.4,8.33 18.74,12.25 7.33,4 15.85,8.33 25.42,13.04 9.9,4.92 19.2,10.03 28.05,15.4 8.84,5.37 16.57,11.34 23.2,17.82 6.67,6.56 11.92,13.77 15.85,21.7 3.93,7.93 5.84,17.04 5.84,27.26 0,13.57 -2.63,25.1 -7.93,34.47 -5.31,9.43 -12.52,17.11 -21.5,22.93 -9.04,5.9 -19.46,10.17 -31.2,12.79 -11.8,2.62 -24.17,3.93 -37.29,3.93 -4.31,0 -9.69,-0.33 -16.12,-1.06 -6.35,-0.71 -12.91,-1.69 -19.59,-3.07 -6.62,-1.31 -12.91,-3.01 -18.87,-4.98 -5.97,-1.96 -10.75,-4.2 -14.36,-6.63zm254.06 11.15l-32.23 0 0 -275.29 32.23 0 0 275.29zm72.42 0l0 -275.29 76.02 0c96.99,0 145.54,44.7 145.54,134.21 0,42.46 -13.5,76.61 -40.43,102.42 -26.93,25.75 -62.97,38.66 -108.18,38.66l-72.94 0zm32.23 -246.13l0 216.97 41.1 0c36.1,0 64.15,-9.7 84.27,-29.03 20.12,-19.33 30.15,-46.72 30.15,-82.18 0,-70.51 -37.48,-105.77 -112.52,-105.77l-42.99 0zm450.2 246.13l-35.72 0 -29.16 -77.2 -116.78 0 -27.46 77.2 -35.84 0 105.57 -275.29 33.42 0 105.97 275.29zm-75.49 -106.16l-43.19 -117.29c-1.37,-3.87 -2.81,-10.03 -4.19,-18.42l-0.79 0c-1.24,7.8 -2.75,13.9 -4.38,18.42l-42.87 117.29 95.42 0zm115.99 106.16l0 -275.29 76.02 0c96.99,0 145.54,44.7 145.54,134.21 0,42.46 -13.5,76.61 -40.43,102.42 -26.93,25.75 -62.97,38.66 -108.18,38.66l-72.94 0zm32.23 -246.13l0 216.97 41.1 0c36.1,0 64.15,-9.7 84.27,-29.03 20.12,-19.33 30.15,-46.72 30.15,-82.18 0,-70.51 -37.49,-105.77 -112.52,-105.77l-42.99 0zm573.13 246.13l-39.57 0 -141.68 -219.46c-3.61,-5.51 -6.55,-11.27 -8.84,-17.24l-1.11 0c0.98,5.89 1.5,18.48 1.5,37.81l0 198.89 -32.23 0 0 -275.29 41.87 0 137.82 215.99c5.76,8.91 9.49,15.07 11.13,18.41l0.79 0c-1.31,-7.92 -1.97,-21.43 -1.97,-40.5l0 -193.9 32.31 0 0 275.29zm285.25 0l-35.71 0 -29.16 -77.2 -116.78 0 -27.46 77.2 -35.84 0 105.57 -275.29 33.42 0 105.96 275.29zm-75.48 -106.16l-43.19 -117.29c-1.37,-3.87 -2.81,-10.03 -4.2,-18.42l-0.78 0c-1.25,7.8 -2.75,13.9 -4.39,18.42l-42.86 117.29 95.42 0zm298.16 94.63c-20.32,10.75 -45.68,16.13 -76.02,16.13 -39.18,0 -70.51,-12.59 -94.04,-37.81 -23.59,-25.23 -35.39,-58.32 -35.39,-99.28 0,-43.96 13.31,-79.56 39.78,-106.69 26.47,-27.19 60.09,-40.75 100.78,-40.75 26.08,0 47.7,3.8 64.88,11.34l0 34.4c-19.73,-11.01 -41.48,-16.52 -65.27,-16.52 -31.59,0 -57.2,10.56 -76.87,31.65 -19.65,21.1 -29.48,49.34 -29.48,84.66 0,33.56 9.18,60.3 27.52,80.15 18.41,19.92 42.46,29.88 72.34,29.88 27.59,0 51.58,-6.16 71.76,-18.42l0 31.26zm88.33 11.54l-32.23 0 0 -275.29 32.23 0 0 275.29zm183.36 4.59c-39.06,0 -70.31,-12.85 -93.77,-38.6 -23.47,-25.68 -35.26,-59.18 -35.26,-100.4 0,-44.3 11.99,-79.61 35.91,-105.96 23.92,-26.34 56.56,-39.58 97.78,-39.58 38,0 68.61,12.84 91.8,38.4 23.27,25.62 34.87,59.11 34.87,100.46 0,44.88 -11.93,80.4 -35.72,106.55 -23.79,26.08 -55.63,39.13 -95.61,39.13zm2.29 -255.31c-28.9,0 -52.36,10.42 -70.45,31.26 -18.02,20.9 -27.06,48.29 -27.06,82.18 0,33.94 8.78,61.2 26.42,81.91 17.55,20.65 40.55,31 68.8,31 30.21,0 54,-9.82 71.43,-29.55 17.43,-19.73 26.08,-47.31 26.08,-82.77 0,-36.38 -8.39,-64.42 -25.29,-84.27 -16.91,-19.86 -40.24,-29.76 -69.92,-29.76zm405.11 250.72l-39.57 0 -141.68 -219.46c-3.61,-5.51 -6.55,-11.27 -8.84,-17.24l-1.12 0c0.99,5.89 1.51,18.48 1.51,37.81l0 198.89 -32.23 0 0 -275.29 41.87 0 137.81 215.99c5.77,8.91 9.5,15.07 11.14,18.41l0.79 0c-1.31,-7.92 -1.97,-21.43 -1.97,-40.5l0 -193.9 32.31 0 0 275.29zm285.25 0l-35.71 0 -29.17 -77.2 -116.77 0 -27.46 77.2 -35.83 0 105.57 -275.29 33.42 0 105.96 275.29zm-75.48 -106.16l-43.19 -117.29c-1.37,-3.87 -2.82,-10.03 -4.2,-18.42l-0.78 0c-1.25,7.8 -2.75,13.9 -4.39,18.42l-42.86 117.29 95.42 0zm258.78 106.16l-142.79 0 0 -275.29 32.23 0 0 246.13 110.55 0 0 29.17z"/>
   <path class="fil4" d="M11909.23 1479.08l-86.44 0 0 247.32 -68.4 0 0 -247.32 -85.93 0 0 -55.51 240.77 0 0 55.51zm152.67 252.58c-43.39,0 -78.72,-14.13 -106.03,-42.31 -27.32,-28.26 -40.94,-65.03 -40.94,-110.36 0,-47.87 13.84,-86.58 41.59,-116.13 27.75,-29.55 64.44,-44.4 110.22,-44.4 43.25,0 78.21,14.19 104.88,42.46 26.67,28.32 40.01,65.67 40.01,111.94 0,47.58 -13.84,85.99 -41.53,115.11 -27.62,29.13 -63.73,43.69 -108.2,43.69zm2.95 -254.46c-23.92,0 -42.95,8.94 -57.01,26.96 -14.06,17.94 -21.11,41.66 -21.11,71.22 0,29.99 7.05,53.7 21.11,71.22 14.06,17.45 32.51,26.17 55.29,26.17 23.57,0 42.17,-8.51 56.01,-25.45 13.77,-17.01 20.69,-40.51 20.69,-70.65 0,-31.42 -6.7,-55.86 -20.05,-73.31 -13.4,-17.44 -31.71,-26.16 -54.93,-26.16zm451.12 249.19l-78.36 0 -47.08 -77.92c-3.53,-5.91 -6.91,-11.18 -10.16,-15.86 -3.25,-4.61 -6.49,-8.58 -9.81,-11.89 -3.31,-3.31 -6.78,-5.84 -10.39,-7.64 -3.6,-1.73 -7.49,-2.6 -11.67,-2.6l-18.38 0 0 115.91 -68.27 0 0 -302.83 108.13 0c73.53,0 110.3,27.46 110.3,82.33 0,10.6 -1.66,20.32 -4.9,29.26 -3.25,8.93 -7.79,17 -13.7,24.22 -5.91,7.14 -13.05,13.34 -21.41,18.53 -8.43,5.26 -17.74,9.3 -28.04,12.25l0 0.87c4.54,1.44 8.86,3.67 13.12,6.84 4.25,3.18 8.28,6.85 12.25,11.11 3.97,4.26 7.71,8.79 11.32,13.61 3.6,4.84 6.84,9.6 9.81,14.28l57.23 89.52zm-185.84 -251.71l0 84.26 29.56 0c14.63,0 26.38,-4.26 35.25,-12.68 9.01,-8.58 13.55,-19.25 13.55,-31.86 0,-26.52 -15.86,-39.72 -47.58,-39.72l-30.78 0zm282.36 251.71l-68.27 0 0 -302.83 68.27 0 0 302.83zm68.77 0l0 -302.83 110.29 0c33.81,0 59.76,6.2 77.93,18.6 18.16,12.33 27.24,29.84 27.24,52.33 0,16.36 -5.55,30.63 -16.57,42.89 -11.1,12.25 -25.16,20.76 -42.38,25.52l0 0.87c21.54,2.67 38.77,10.66 51.67,23.86 12.84,13.27 19.33,29.34 19.33,48.37 0,27.75 -9.95,49.74 -29.77,66.03 -19.9,16.21 -47,24.36 -81.31,24.36l-116.42 0zm68.26 -252.58l0 71.79 30 0c14.05,0 25.15,-3.38 33.22,-10.22 8.15,-6.85 12.19,-16.22 12.19,-28.2 0,-22.27 -16.65,-33.37 -49.88,-33.37l-25.52 0zm0 122.47l0 79.87 36.98 0c15.72,0 28.11,-3.68 37.05,-11.03 8.94,-7.28 13.4,-17.3 13.4,-29.99 0,-12.11 -4.39,-21.55 -13.18,-28.47 -8.87,-6.92 -21.12,-10.38 -36.91,-10.38l-37.35 0zm277.31 130.11l-68.26 0 0 -302.83 68.26 0 0 302.83zm196.79 5.26c-43.39,0 -78.72,-14.13 -106.04,-42.31 -27.31,-28.26 -40.94,-65.03 -40.94,-110.36 0,-47.87 13.85,-86.58 41.6,-116.13 27.75,-29.55 64.44,-44.4 110.22,-44.4 43.25,0 78.21,14.19 104.88,42.46 26.67,28.32 40.01,65.67 40.01,111.94 0,47.58 -13.84,85.99 -41.53,115.11 -27.62,29.13 -63.73,43.69 -108.2,43.69zm2.95 -254.46c-23.93,0 -42.95,8.94 -57.01,26.96 -14.06,17.94 -21.11,41.66 -21.11,71.22 0,29.99 7.05,53.7 21.11,71.22 14.06,17.45 32.51,26.17 55.29,26.17 23.57,0 42.17,-8.51 56.01,-25.45 13.77,-17.01 20.69,-40.51 20.69,-70.65 0,-31.42 -6.7,-55.86 -20.05,-73.31 -13.4,-17.44 -31.71,-26.16 -54.93,-26.16zm570.42 249.19l-78.36 0 -47.08 -77.92c-3.53,-5.91 -6.91,-11.18 -10.16,-15.86 -3.25,-4.61 -6.49,-8.58 -9.81,-11.89 -3.31,-3.31 -6.78,-5.84 -10.39,-7.64 -3.6,-1.73 -7.49,-2.6 -11.67,-2.6l-18.38 0 0 115.91 -68.27 0 0 -302.83 108.13 0c73.53,0 110.29,27.46 110.29,82.33 0,10.6 -1.66,20.32 -4.9,29.26 -3.24,8.93 -7.78,17 -13.69,24.22 -5.91,7.14 -13.05,13.34 -21.41,18.53 -8.43,5.26 -17.74,9.3 -28.04,12.25l0 0.87c4.54,1.44 8.86,3.67 13.12,6.84 4.25,3.18 8.28,6.85 12.25,11.11 3.97,4.26 7.71,8.79 11.32,13.61 3.6,4.84 6.84,9.6 9.81,14.28l57.23 89.52zm-185.84 -251.71l0 84.26 29.56 0c14.63,0 26.38,-4.26 35.25,-12.68 9.01,-8.58 13.55,-19.25 13.55,-31.86 0,-26.52 -15.86,-39.72 -47.58,-39.72l-30.78 0zm337.86 256.98c-43.39,0 -78.72,-14.13 -106.03,-42.31 -27.32,-28.26 -40.94,-65.03 -40.94,-110.36 0,-47.87 13.84,-86.58 41.59,-116.13 27.75,-29.55 64.44,-44.4 110.22,-44.4 43.25,0 78.21,14.19 104.88,42.46 26.67,28.32 40.01,65.67 40.01,111.94 0,47.58 -13.84,85.99 -41.53,115.11 -27.61,29.13 -63.72,43.69 -108.2,43.69zm2.95 -254.46c-23.92,0 -42.95,8.94 -57.01,26.96 -14.06,17.94 -21.11,41.66 -21.11,71.22 0,29.99 7.05,53.7 21.11,71.22 14.06,17.45 32.51,26.17 55.29,26.17 23.57,0 42.17,-8.51 56.01,-25.45 13.77,-17.01 20.69,-40.51 20.69,-70.65 0,-31.42 -6.7,-55.86 -20.05,-73.31 -13.39,-17.44 -31.71,-26.16 -54.93,-26.16zm197.01 249.19l0 -302.83 107.34 0c107.55,0 161.32,49.16 161.32,147.63 0,47.14 -14.7,84.76 -44.04,112.95 -29.34,28.19 -68.41,42.24 -117.28,42.24l-107.34 0zm68.27 -247.32l0 191.96 33.81 0c29.55,0 52.68,-8.86 69.56,-26.6 16.79,-17.74 25.23,-41.88 25.23,-72.45 0,-28.84 -8.37,-51.54 -25.02,-68.05 -16.72,-16.57 -40.08,-24.87 -70.21,-24.87l-33.38 0zm504.74 247.32l-78.36 0 -47.08 -77.92c-3.52,-5.91 -6.91,-11.18 -10.16,-15.86 -3.25,-4.61 -6.48,-8.58 -9.81,-11.89 -3.31,-3.31 -6.78,-5.84 -10.39,-7.64 -3.6,-1.73 -7.48,-2.6 -11.67,-2.6l-18.38 0 0 115.91 -68.26 0 0 -302.83 108.12 0c73.53,0 110.3,27.46 110.3,82.33 0,10.6 -1.66,20.32 -4.9,29.26 -3.25,8.93 -7.79,17 -13.7,24.22 -5.9,7.14 -13.05,13.34 -21.41,18.53 -8.43,5.26 -17.74,9.3 -28.04,12.25l0 0.87c4.54,1.44 8.86,3.67 13.12,6.84 4.26,3.18 8.29,6.85 12.25,11.11 3.97,4.26 7.71,8.79 11.32,13.61 3.61,4.84 6.85,9.6 9.81,14.28l57.23 89.52zm-185.84 -251.71l0 84.26 29.56 0c14.63,0 26.38,-4.26 35.25,-12.68 9.01,-8.58 13.55,-19.25 13.55,-31.86 0,-26.52 -15.86,-39.72 -47.57,-39.72l-30.79 0zm282.36 251.71l-68.27 0 0 -302.83 68.27 0 0 302.83zm34.68 -399.13l-66.12 68.19 -48.15 0 54.93 -68.19 59.34 0zm282.71 378.87c-29.56,17.01 -66.32,25.52 -110.29,25.52 -48.67,0 -87.09,-13.48 -115.19,-40.44 -28.05,-26.96 -42.11,-64.08 -42.11,-111.37 0,-47.57 15.36,-86.35 46.07,-116.34 30.63,-30.06 71.5,-45.05 122.47,-45.05 32.08,0 60.4,4.46 84.84,13.33l0 64.01c-23.35,-13.55 -51.9,-20.25 -85.71,-20.25 -28.33,0 -51.32,9.15 -69.12,27.53 -17.88,18.38 -26.75,42.9 -26.75,73.6 0,31.06 8.01,55.15 23.93,72.23 16,17.01 37.56,25.52 64.73,25.52 16.36,0 29.33,-2.3 38.85,-6.92l0 -59.18 -60.55 0 0 -54.5 128.81 0 0 152.31zm305.78 -110.86c0,90.9 -42.38,136.38 -127.08,136.38 -82.25,0 -123.34,-44.4 -123.34,-133.21l0 -174.88 68.41 0 0 175.67c0,49.02 19.17,73.53 57.45,73.53 37.56,0 56.37,-23.65 56.37,-71l0 -178.2 68.19 0 0 171.71zm247.54 131.12l-181.66 0 0 -302.83 174.66 0 0 55.51 -106.4 0 0 67.39 99.04 0 0 55.3 -99.04 0 0 69.27 113.4 0 0 55.36zm266.49 0l-243.94 0 0 -39.29 155.2 -208.03 -144.02 0 0 -55.51 232.32 0 0 38.21 -151.81 209.26 152.24 0 0 55.36zm163.86 0l0 -302.83 107.34 0c107.55,0 161.31,49.16 161.31,147.63 0,47.14 -14.7,84.76 -44.04,112.95 -29.34,28.19 -68.41,42.24 -117.27,42.24l-107.34 0zm68.26 -247.32l0 191.96 33.81 0c29.55,0 52.69,-8.86 69.56,-26.6 16.79,-17.74 25.23,-41.88 25.23,-72.45 0,-28.84 -8.37,-51.54 -25.01,-68.05 -16.73,-16.57 -40.08,-24.87 -70.21,-24.87l-33.39 0zm432.3 247.32l-181.66 0 0 -302.83 174.66 0 0 55.51 -106.4 0 0 67.39 99.04 0 0 55.3 -99.04 0 0 69.27 113.4 0 0 55.36zm-4578.47 441.77l-67.4 0 0 -181.22c0,-19.53 0.86,-41.16 2.52,-64.8l-1.67 0c-3.53,18.59 -6.7,31.93 -9.51,40.15l-70.93 205.87 -55.8 0 -72.23 -203.78c-1.95,-5.47 -5.12,-19.6 -9.52,-42.24l-1.87 0c1.8,29.84 2.73,56.01 2.73,78.57l0 167.45 -61.48 0 0 -302.82 99.9 0 61.93 179.48c4.9,14.36 8.5,28.77 10.74,43.32l1.29 0c3.75,-16.79 7.79,-31.35 12.03,-43.75l61.86 -179.05 97.39 0 0 302.82zm250.42 0l-181.65 0 0 -302.82 174.65 0 0 55.5 -106.39 0 0 67.39 99.04 0 0 55.3 -99.04 0 0 69.27 113.39 0 0 55.36zm320.99 0l-68.84 0 -124.85 -190.3c-7.27,-11.1 -12.39,-19.46 -15.2,-25.08l-0.8 0c1.09,10.67 1.66,27.04 1.66,48.95l0 166.43 -64.44 0 0 -302.82 73.52 0 120.17 184.31c5.48,8.36 10.53,16.58 15.21,24.72l0.87 0c-1.16,-6.99 -1.73,-20.9 -1.73,-41.59l0 -167.44 64.44 0 0 302.82zm69.21 0l0 -302.82 107.33 0c107.55,0 161.32,49.15 161.32,147.62 0,47.14 -14.7,84.77 -44.04,112.95 -29.34,28.19 -68.41,42.24 -117.28,42.24l-107.33 0zm68.26 -247.32l0 191.96 33.81 0c29.55,0 52.68,-8.86 69.56,-26.6 16.79,-17.74 25.23,-41.88 25.23,-72.45 0,-28.84 -8.37,-51.54 -25.02,-68.05 -16.72,-16.57 -40.08,-24.87 -70.21,-24.87l-33.38 0zm378.66 252.58c-43.39,0 -78.71,-14.13 -106.03,-42.31 -27.32,-28.26 -40.94,-65.03 -40.94,-110.36 0,-47.87 13.84,-86.58 41.59,-116.13 27.75,-29.55 64.44,-44.4 110.22,-44.4 43.25,0 78.21,14.19 104.88,42.46 26.67,28.32 40.01,65.67 40.01,111.94 0,47.58 -13.84,85.99 -41.53,115.11 -27.61,29.13 -63.72,43.69 -108.2,43.69zm2.96 -254.46c-23.93,0 -42.96,8.94 -57.02,26.96 -14.05,17.94 -21.11,41.66 -21.11,71.22 0,29.99 7.06,53.7 21.11,71.22 14.06,17.45 32.52,26.17 55.3,26.17 23.56,0 42.16,-8.51 56.01,-25.45 13.77,-17.01 20.69,-40.51 20.69,-70.65 0,-31.42 -6.7,-55.86 -20.04,-73.31 -13.4,-17.44 -31.72,-26.16 -54.93,-26.16zm406.34 249.19l-243.94 0 0 -39.28 155.2 -208.04 -144.03 0 0 -55.5 232.32 0 0 38.2 -151.8 209.26 152.24 0 0 55.36zm310.9 0l-74.31 0 -21.56 -67.39 -107.69 0 -21.34 67.39 -73.96 0 110.29 -302.82 80.89 0 107.69 302.82zm-111.52 -119.73l-32.51 -101.79c-2.38,-7.63 -4.1,-16.72 -5.12,-27.25l-1.66 0c-0.71,8.87 -2.45,17.67 -5.25,26.38l-32.95 102.65 77.49 0zm268.59 119.73l0 -302.82 107.34 0c107.55,0 161.32,49.15 161.32,147.62 0,47.14 -14.71,84.77 -44.05,112.95 -29.34,28.19 -68.41,42.24 -117.27,42.24l-107.34 0zm68.26 -247.32l0 191.96 33.81 0c29.55,0 52.69,-8.86 69.56,-26.6 16.79,-17.74 25.23,-41.88 25.23,-72.45 0,-28.84 -8.36,-51.54 -25.01,-68.05 -16.73,-16.57 -40.08,-24.87 -70.21,-24.87l-33.39 0zm432.3 247.32l-181.66 0 0 -302.82 174.66 0 0 55.5 -106.39 0 0 67.39 99.03 0 0 55.3 -99.03 0 0 69.27 113.39 0 0 55.36zm434.16 0l-74.31 0 -21.56 -67.39 -107.69 0 -21.34 67.39 -73.96 0 110.3 -302.82 80.88 0 107.69 302.82zm-111.52 -119.73l-32.51 -101.79c-2.38,-7.63 -4.1,-16.72 -5.11,-27.25l-1.67 0c-0.71,8.87 -2.45,17.67 -5.25,26.38l-32.95 102.65 77.49 0zm494.43 119.73l-67.4 0 0 -181.22c0,-19.53 0.87,-41.16 2.52,-64.8l-1.66 0c-3.53,18.59 -6.7,31.93 -9.52,40.15l-70.92 205.87 -55.8 0 -72.24 -203.78c-1.94,-5.47 -5.11,-19.6 -9.51,-42.24l-1.88 0c1.8,29.84 2.74,56.01 2.74,78.57l0 167.45 -61.49 0 0 -302.82 99.91 0 61.92 179.48c4.9,14.36 8.51,28.77 10.74,43.32l1.3 0c3.75,-16.79 7.79,-31.35 12.03,-43.75l61.85 -179.05 97.39 0 0 302.82zm335.12 0l-74.31 0 -21.55 -67.39 -107.7 0 -21.34 67.39 -73.95 0 110.29 -302.82 80.88 0 107.69 302.82zm-111.51 -119.73l-32.51 -101.79c-2.39,-7.63 -4.11,-16.72 -5.12,-27.25l-1.66 0c-0.71,8.87 -2.45,17.67 -5.26,26.38l-32.94 102.65 77.49 0zm372.09 119.73l-243.94 0 0 -39.28 155.2 -208.04 -144.03 0 0 -55.5 232.33 0 0 38.2 -151.81 209.26 152.24 0 0 55.36zm172.57 5.26c-43.39,0 -78.72,-14.13 -106.03,-42.31 -27.32,-28.26 -40.94,-65.03 -40.94,-110.36 0,-47.87 13.84,-86.58 41.59,-116.13 27.75,-29.55 64.44,-44.4 110.22,-44.4 43.25,0 78.21,14.19 104.88,42.46 26.67,28.32 40.01,65.67 40.01,111.94 0,47.58 -13.84,85.99 -41.53,115.11 -27.61,29.13 -63.72,43.69 -108.2,43.69zm2.96 -254.46c-23.93,0 -42.96,8.94 -57.02,26.96 -14.05,17.94 -21.11,41.66 -21.11,71.22 0,29.99 7.06,53.7 21.11,71.22 14.06,17.45 32.52,26.17 55.3,26.17 23.56,0 42.16,-8.51 56.01,-25.45 13.77,-17.01 20.69,-40.51 20.69,-70.65 0,-31.42 -6.7,-55.86 -20.04,-73.31 -13.4,-17.44 -31.72,-26.16 -54.93,-26.16zm469.49 249.19l-68.84 0 -124.86 -190.3c-7.27,-11.1 -12.39,-19.46 -15.2,-25.08l-0.79 0c1.09,10.67 1.66,27.04 1.66,48.95l0 166.43 -64.44 0 0 -302.82 73.52 0 120.17 184.31c5.47,8.36 10.52,16.58 15.2,24.72l0.87 0c-1.15,-6.99 -1.73,-20.9 -1.73,-41.59l0 -167.44 64.45 0 0 302.82zm335.55 0l-74.32 0 -21.55 -67.39 -107.7 0 -21.33 67.39 -73.96 0 110.29 -302.82 80.88 0 107.7 302.82zm-111.52 -119.73l-32.51 -101.79c-2.38,-7.63 -4.1,-16.72 -5.12,-27.25l-1.66 0c-0.71,8.87 -2.45,17.67 -5.26,26.38l-32.94 102.65 77.49 0zm135.37 108.14l0 -67.63c12.25,10.32 25.59,18.03 39.94,23.14 14.35,5.12 28.83,7.72 43.47,7.72 8.65,0 16.15,-0.79 22.49,-2.31 6.42,-1.59 11.76,-3.67 16.07,-6.49 4.33,-2.73 7.5,-5.97 9.6,-9.65 2.16,-3.74 3.17,-7.78 3.17,-12.19 0,-5.91 -1.66,-11.17 -5.05,-15.78 -3.39,-4.68 -8,-9.02 -13.84,-12.9 -5.84,-3.97 -12.76,-7.79 -20.83,-11.4 -8.01,-3.67 -16.65,-7.43 -25.95,-11.24 -23.65,-9.8 -41.31,-21.84 -52.91,-36.11 -11.6,-14.2 -17.37,-31.36 -17.37,-51.47 0,-15.78 3.1,-29.33 9.44,-40.65 6.35,-11.4 14.99,-20.69 25.88,-28.05 10.95,-7.27 23.57,-12.69 37.91,-16.15 14.35,-3.46 29.56,-5.19 45.64,-5.19 15.77,0 29.77,1.01 41.94,2.87 12.12,1.88 23.36,4.84 33.66,8.81l0 63.14c-5.11,-3.52 -10.6,-6.63 -16.57,-9.29 -5.98,-2.68 -12.19,-4.9 -18.53,-6.71 -6.27,-1.72 -12.61,-3.02 -18.89,-3.88 -6.27,-0.79 -12.19,-1.23 -17.8,-1.23 -7.79,0 -14.77,0.71 -21.12,2.16 -6.34,1.51 -11.68,3.6 -16.08,6.27 -4.31,2.67 -7.7,5.84 -10.16,9.59 -2.38,3.75 -3.53,7.93 -3.53,12.55 0,5.11 1.3,9.65 3.96,13.61 2.68,4.04 6.48,7.86 11.46,11.46 4.9,3.54 10.89,7.07 17.94,10.53 7,3.46 15,7 23.87,10.66 12.11,5.06 22.92,10.46 32.58,16.16 9.67,5.69 17.95,12.19 24.8,19.32 6.93,7.21 12.19,15.42 15.87,24.66 3.67,9.16 5.47,19.9 5.47,32.15 0,16.94 -3.17,31.07 -9.59,42.6 -6.42,11.46 -15.07,20.76 -26.09,27.83 -10.96,7.14 -23.71,12.25 -38.28,15.36 -14.63,3.09 -29.99,4.61 -46.21,4.61 -16.57,0 -32.37,-1.36 -47.35,-4.18 -15,-2.81 -28.05,-7.06 -39,-12.68z"/>
   <line class="fil3 str1" x1="11323.86" y1="625.31" x2="11323.86" y2= "2484.42" />
  </g>
 </g>
</svg>
